<svg width="841" height="782" viewBox="0 0 841 782" fill="none" xmlns="http://www.w3.org/2000/svg">
<rect width="841" height="782" fill="url(#paint0_linear_0_1)" fill-opacity="0.73"/>
<g filter="url(#filter0_d_0_1)">
<ellipse cx="678.888" cy="529.77" rx="89.1115" ry="38.4144" fill="#041C32"/>
<path d="M767.85 529.77C767.85 535.023 765.381 540.04 760.89 544.617C756.399 549.195 749.892 553.324 741.84 556.795C725.737 563.737 703.48 568.034 678.888 568.034C654.296 568.034 632.04 563.737 615.936 556.795C607.885 553.324 601.378 549.195 596.887 544.617C592.396 540.04 589.927 535.023 589.927 529.77C589.927 524.516 592.396 519.499 596.887 514.922C601.378 510.345 607.885 506.216 615.936 502.745C632.04 495.803 654.296 491.505 678.888 491.505C703.48 491.505 725.737 495.803 741.84 502.745C749.892 506.216 756.399 510.345 760.89 514.922C765.381 519.499 767.85 524.516 767.85 529.77Z" stroke="#4492D6" stroke-width="0.3"/>
</g>
<g filter="url(#filter1_d_0_1)">
<ellipse cx="678.888" cy="510.276" rx="89.1115" ry="38.4144" fill="#0B2F4E"/>
<path d="M767.85 510.276C767.85 515.529 765.381 520.547 760.89 525.123C756.399 529.701 749.892 533.83 741.84 537.301C725.737 544.243 703.48 548.54 678.888 548.54C654.296 548.54 632.04 544.243 615.936 537.301C607.885 533.83 601.378 529.701 596.887 525.123C592.396 520.547 589.927 515.529 589.927 510.276C589.927 505.022 592.396 500.005 596.887 495.428C601.378 490.851 607.885 486.722 615.936 483.251C632.04 476.309 654.296 472.012 678.888 472.012C703.48 472.012 725.737 476.309 741.84 483.251C749.892 486.722 756.399 490.851 760.89 495.428C765.381 500.005 767.85 505.022 767.85 510.276Z" stroke="#4492D6" stroke-width="0.3"/>
</g>
<g filter="url(#filter2_d_0_1)">
<ellipse cx="678.888" cy="489.635" rx="89.1115" ry="38.4144" fill="#114879"/>
<path d="M767.85 489.635C767.85 494.889 765.381 499.906 760.89 504.483C756.399 509.06 749.892 513.19 741.84 516.661C725.737 523.602 703.48 527.9 678.888 527.9C654.296 527.9 632.04 523.602 615.936 516.661C607.885 513.19 601.378 509.06 596.887 504.483C592.396 499.906 589.927 494.889 589.927 489.635C589.927 484.382 592.396 479.365 596.887 474.788C601.378 470.21 607.885 466.081 615.936 462.61C632.04 455.668 654.296 451.371 678.888 451.371C703.48 451.371 725.737 455.668 741.84 462.61C749.892 466.081 756.399 470.21 760.89 474.788C765.381 479.365 767.85 484.382 767.85 489.635Z" stroke="#4492D6" stroke-width="0.3"/>
</g>
<g filter="url(#filter3_d_0_1)">
<ellipse cx="678.888" cy="471.288" rx="89.1115" ry="38.4144" fill="#114E84"/>
<path d="M767.85 471.288C767.85 476.542 765.381 481.559 760.89 486.136C756.399 490.713 749.892 494.842 741.84 498.313C725.737 505.255 703.48 509.553 678.888 509.553C654.296 509.553 632.04 505.255 615.936 498.313C607.885 494.842 601.378 490.713 596.887 486.136C592.396 481.559 589.927 476.542 589.927 471.288C589.927 466.035 592.396 461.018 596.887 456.441C601.378 451.863 607.885 447.734 615.936 444.263C632.04 437.321 654.296 433.024 678.888 433.024C703.48 433.024 725.737 437.321 741.84 444.263C749.892 447.734 756.399 451.863 760.89 456.441C765.381 461.018 767.85 466.035 767.85 471.288Z" stroke="#4492D6" stroke-width="0.3"/>
</g>
<g filter="url(#filter4_d_0_1)">
<ellipse cx="678.888" cy="452.941" rx="89.1115" ry="38.4144" fill="#0F5A9C"/>
<path d="M767.85 452.941C767.85 458.195 765.381 463.212 760.89 467.789C756.399 472.366 749.892 476.495 741.84 479.966C725.737 486.908 703.48 491.205 678.888 491.205C654.296 491.205 632.04 486.908 615.936 479.966C607.885 476.495 601.378 472.366 596.887 467.789C592.396 463.212 589.927 458.195 589.927 452.941C589.927 447.688 592.396 442.67 596.887 438.093C601.378 433.516 607.885 429.387 615.936 425.916C632.04 418.974 654.296 414.677 678.888 414.677C703.48 414.677 725.737 418.974 741.84 425.916C749.892 429.387 756.399 433.516 760.89 438.093C765.381 442.67 767.85 447.688 767.85 452.941Z" stroke="#4492D6" stroke-width="0.3"/>
</g>
<g filter="url(#filter5_d_0_1)">
<ellipse cx="678.888" cy="433.447" rx="89.1115" ry="38.4144" fill="#1268B5"/>
<ellipse cx="678.888" cy="433.447" rx="89.1115" ry="38.4144" fill="#1268B5"/>
<ellipse cx="678.888" cy="433.447" rx="89.1115" ry="38.4144" fill="#1268B5"/>
<ellipse cx="678.888" cy="433.447" rx="89.1115" ry="38.4144" fill="#1268B5"/>
<path d="M767.85 433.447C767.85 438.701 765.381 443.718 760.89 448.295C756.399 452.872 749.892 457.002 741.84 460.473C725.737 467.414 703.48 471.712 678.888 471.712C654.296 471.712 632.04 467.414 615.936 460.473C607.885 457.002 601.378 452.872 596.887 448.295C592.396 443.718 589.927 438.701 589.927 433.447C589.927 428.194 592.396 423.177 596.887 418.6C601.378 414.022 607.885 409.893 615.936 406.422C632.04 399.48 654.296 395.183 678.888 395.183C703.48 395.183 725.737 399.48 741.84 406.422C749.892 409.893 756.399 414.022 760.89 418.6C765.381 423.177 767.85 428.194 767.85 433.447Z" stroke="#4492D6" stroke-width="0.3"/>
</g>
<g filter="url(#filter6_d_0_1)">
<ellipse cx="678.888" cy="413.953" rx="89.1115" ry="38.4144" fill="#1268B5"/>
<ellipse cx="678.888" cy="413.953" rx="89.1115" ry="38.4144" fill="#1268B5"/>
<ellipse cx="678.888" cy="413.953" rx="89.1115" ry="38.4144" fill="#1268B5"/>
<ellipse cx="678.888" cy="413.953" rx="89.1115" ry="38.4144" fill="#107AD9"/>
<path d="M767.85 413.953C767.85 419.207 765.381 424.224 760.89 428.801C756.399 433.378 749.892 437.508 741.84 440.979C725.737 447.92 703.48 452.218 678.888 452.218C654.296 452.218 632.04 447.92 615.936 440.979C607.885 437.508 601.378 433.378 596.887 428.801C592.396 424.224 589.927 419.207 589.927 413.953C589.927 408.7 592.396 403.683 596.887 399.106C601.378 394.528 607.885 390.399 615.936 386.928C632.04 379.986 654.296 375.689 678.888 375.689C703.48 375.689 725.737 379.986 741.84 386.928C749.892 390.399 756.399 394.528 760.89 399.106C765.381 403.683 767.85 408.7 767.85 413.953Z" stroke="#4492D6" stroke-width="0.3"/>
</g>
<g filter="url(#filter7_d_0_1)">
<ellipse cx="678.888" cy="395.606" rx="89.1115" ry="38.4144" fill="#1268B5"/>
<ellipse cx="678.888" cy="395.606" rx="89.1115" ry="38.4144" fill="#1268B5"/>
<ellipse cx="678.888" cy="395.606" rx="89.1115" ry="38.4144" fill="#1268B5"/>
<ellipse cx="678.888" cy="395.606" rx="89.1115" ry="38.4144" fill="#1286EC"/>
<path d="M767.85 395.606C767.85 400.86 765.381 405.877 760.89 410.454C756.399 415.031 749.892 419.16 741.84 422.631C725.737 429.573 703.48 433.87 678.888 433.87C654.296 433.87 632.04 429.573 615.936 422.631C607.885 419.16 601.378 415.031 596.887 410.454C592.396 405.877 589.927 400.86 589.927 395.606C589.927 390.353 592.396 385.335 596.887 380.759C601.378 376.181 607.885 372.052 615.936 368.581C632.04 361.639 654.296 357.342 678.888 357.342C703.48 357.342 725.737 361.639 741.84 368.581C749.892 372.052 756.399 376.181 760.89 380.759C765.381 385.335 767.85 390.353 767.85 395.606Z" stroke="#4492D6" stroke-width="0.3"/>
</g>
<g filter="url(#filter8_d_0_1)">
<ellipse cx="678.888" cy="379.552" rx="89.1115" ry="38.4144" fill="#1268B5"/>
<ellipse cx="678.888" cy="379.552" rx="89.1115" ry="38.4144" fill="#1268B5"/>
<ellipse cx="678.888" cy="379.552" rx="89.1115" ry="38.4144" fill="#1268B5"/>
<ellipse cx="678.888" cy="379.552" rx="89.1115" ry="38.4144" fill="#128EFC"/>
<path d="M767.85 379.552C767.85 384.806 765.381 389.823 760.89 394.4C756.399 398.978 749.892 403.107 741.84 406.578C725.737 413.52 703.48 417.817 678.888 417.817C654.296 417.817 632.04 413.52 615.936 406.578C607.885 403.107 601.378 398.978 596.887 394.4C592.396 389.823 589.927 384.806 589.927 379.552C589.927 374.299 592.396 369.282 596.887 364.705C601.378 360.127 607.885 355.998 615.936 352.527C632.04 345.585 654.296 341.288 678.888 341.288C703.48 341.288 725.737 345.585 741.84 352.527C749.892 355.998 756.399 360.127 760.89 364.705C765.381 369.282 767.85 374.299 767.85 379.552Z" stroke="#4492D6" stroke-width="0.3"/>
</g>
<g filter="url(#filter9_d_0_1)">
<ellipse cx="678.888" cy="357.765" rx="89.1115" ry="38.4144" fill="#1268B5"/>
<ellipse cx="678.888" cy="357.765" rx="89.1115" ry="38.4144" fill="#1268B5"/>
<ellipse cx="678.888" cy="357.765" rx="89.1115" ry="38.4144" fill="#1268B5"/>
<ellipse cx="678.888" cy="357.765" rx="89.1115" ry="38.4144" fill="#2B9BFE"/>
<path d="M767.85 357.765C767.85 363.019 765.381 368.036 760.89 372.613C756.399 377.19 749.892 381.319 741.84 384.79C725.737 391.732 703.48 396.03 678.888 396.03C654.296 396.03 632.04 391.732 615.936 384.79C607.885 381.319 601.378 377.19 596.887 372.613C592.396 368.036 589.927 363.019 589.927 357.765C589.927 352.512 592.396 347.494 596.887 342.918C601.378 338.34 607.885 334.211 615.936 330.74C632.04 323.798 654.296 319.501 678.888 319.501C703.48 319.501 725.737 323.798 741.84 330.74C749.892 334.211 756.399 338.34 760.89 342.918C765.381 347.494 767.85 352.512 767.85 357.765Z" stroke="#4492D6" stroke-width="0.3"/>
</g>
<g filter="url(#filter10_d_0_1)">
<path d="M227.348 395.306L227.348 200.25L313.43 183.781L402.68 205.418L402.68 395.306L313.429 429.788L227.348 395.306Z" fill="url(#paint1_linear_0_1)" shape-rendering="crispEdges"/>
<path d="M313.43 429.631L227.502 395.209L227.502 200.369L313.426 183.931L402.526 205.531L402.526 395.208L313.43 429.631Z" stroke="#1268B5" stroke-width="0.3" shape-rendering="crispEdges"/>
</g>
<g filter="url(#filter11_d_0_1)">
<path d="M225.277 203.885L225.277 188.973L314.382 170.944L406.255 192.235L406.255 207.612L314.382 241.945L225.277 203.885Z" fill="#1187F1"/>
<path d="M314.386 241.786L225.431 203.79L225.431 189.091L314.38 171.094L406.101 192.349L406.101 207.513L314.386 241.786Z" stroke="#1268B5" stroke-width="0.3"/>
</g>
<path d="M225.668 189.03L225.329 189.157L225.661 189.298L314.319 227.166L314.378 227.192L314.439 227.168L405.864 192.456L406.213 192.324L405.866 192.187L314.442 155.898L314.384 155.875L314.325 155.897L225.668 189.03Z" fill="#82BFF5" stroke="#1268B5" stroke-width="0.3"/>
<line x1="314.385" y1="241.066" x2="314.385" y2="426.526" stroke="#0F528C" stroke-width="0.3"/>
<path d="M246.229 223.359L254.437 226.621V251.784L246.229 248.522V223.359Z" fill="#D9D9D9" fill-opacity="0.41"/>
<path d="M256.782 227.087L264.989 230.349V255.512L256.782 252.25V227.087Z" fill="#D9D9D9" fill-opacity="0.41"/>
<path d="M267.334 231.747L275.542 235.008V260.171L267.334 256.91V231.747Z" fill="#D9D9D9" fill-opacity="0.41"/>
<path d="M277.887 235.474L286.095 238.736V263.899L277.887 260.637V235.474Z" fill="#D9D9D9" fill-opacity="0.41"/>
<path d="M288.44 240.134L296.647 243.396V268.559L288.44 265.297V240.134Z" fill="#D9D9D9" fill-opacity="0.41"/>
<path d="M298.992 243.862L307.2 247.124V272.287L298.992 269.025V243.862Z" fill="#D9D9D9" fill-opacity="0.41"/>
<path d="M235.676 218.699L243.884 221.961V247.124L235.676 243.862V218.699Z" fill="#D9D9D9" fill-opacity="0.41"/>
<path d="M328.727 245.241L319.183 248.658L319.183 272.889L328.726 268.696L328.727 245.241Z" fill="#D9D9D9" fill-opacity="0.41"/>
<path d="M340.452 240.581L330.908 243.999L330.908 268.23L340.451 264.036L340.452 240.581Z" fill="#D9D9D9" fill-opacity="0.41"/>
<path d="M352.177 235.922L342.633 239.339L342.633 263.57L352.177 259.376L352.177 235.922Z" fill="#D9D9D9" fill-opacity="0.41"/>
<path d="M363.902 231.262L354.359 234.679L354.359 258.91L363.902 254.716L363.902 231.262Z" fill="#D9D9D9" fill-opacity="0.41"/>
<path d="M375.627 226.602L366.084 230.019L366.084 254.25L375.627 250.056L375.627 226.602Z" fill="#D9D9D9" fill-opacity="0.41"/>
<path d="M387.352 221.942L377.809 225.359L377.809 249.59L387.352 245.397L387.352 221.942Z" fill="#D9D9D9" fill-opacity="0.41"/>
<path d="M399.078 217.282L389.534 220.7L389.534 244.931L399.077 240.737L399.078 217.282Z" fill="#D9D9D9" fill-opacity="0.41"/>
<g filter="url(#filter12_d_0_1)">
<path d="M410.261 457.747L410.261 262.691L496.343 246.222L585.593 267.859L585.593 457.747L496.342 492.23L410.261 457.747Z" fill="url(#paint2_linear_0_1)" shape-rendering="crispEdges"/>
<path d="M496.343 492.072L410.415 457.65L410.415 262.81L496.339 246.372L585.439 267.972L585.439 457.649L496.343 492.072Z" stroke="#1268B5" stroke-width="0.3" shape-rendering="crispEdges"/>
</g>
<g filter="url(#filter13_d_0_1)">
<path d="M407.017 261.666L407.017 246.755L496.122 228.726L587.995 250.017L587.995 265.394L496.122 299.726L407.017 261.666Z" fill="#1187F1"/>
<path d="M496.126 299.568L407.171 261.572L407.171 246.873L496.12 228.875L587.841 250.131L587.841 265.295L496.126 299.568Z" stroke="#1268B5" stroke-width="0.3"/>
</g>
<path d="M407.409 246.812L407.07 246.938L407.402 247.08L496.059 284.948L496.119 284.973L496.18 284.95L587.605 250.238L587.953 250.106L587.607 249.968L496.182 213.68L496.125 213.657L496.066 213.679L407.409 246.812Z" fill="#82BFF5" stroke="#1268B5" stroke-width="0.3"/>
<line x1="496.945" y1="300.712" x2="496.945" y2="492.695" stroke="#0F528C" stroke-width="0.3"/>
<g filter="url(#filter14_d_0_1)">
<path d="M103.061 490.366L103.061 295.31L189.143 278.841L278.393 300.477L278.393 490.366L189.142 524.848L103.061 490.366Z" fill="#1186EE"/>
<path d="M189.143 524.69L103.215 490.269L103.215 295.429L189.139 278.99L278.239 300.591L278.239 490.268L189.143 524.69Z" stroke="#1268B5" stroke-width="0.3"/>
</g>
<g filter="url(#filter15_d_0_1)">
<path d="M99.8172 294.285L99.8171 279.373L188.922 261.344L280.795 282.635L280.795 298.013L188.922 332.345L99.8172 294.285Z" fill="#1187F1"/>
<path d="M188.926 332.187L99.9713 294.191L99.9712 279.491L188.92 261.494L280.641 282.75L280.641 297.913L188.926 332.187Z" stroke="#1268B5" stroke-width="0.3"/>
</g>
<path d="M100.209 279.43L99.8699 279.557L100.202 279.699L188.859 317.566L188.919 317.592L188.98 317.569L280.405 282.857L280.753 282.724L280.407 282.587L188.983 246.298L188.925 246.275L188.866 246.297L100.209 279.43Z" fill="#82BFF5" stroke="#1268B5" stroke-width="0.3"/>
<line x1="189.745" y1="333.33" x2="189.745" y2="525.314" stroke="#0F528C" stroke-width="0.3"/>
<g filter="url(#filter16_d_0_1)">
<path d="M331.861 557.467L331.861 362.411L444.518 345.942L561.32 367.579L561.32 557.467L444.516 591.95L331.861 557.467Z" fill="url(#paint3_linear_0_1)" shape-rendering="crispEdges"/>
<path d="M444.518 591.815L332.033 557.385L332.033 362.513L444.512 346.07L561.149 367.676L561.149 557.384L444.518 591.815Z" stroke="#1268B5" stroke-width="0.3" shape-rendering="crispEdges"/>
</g>
<g filter="url(#filter17_d_0_1)">
<path d="M328.788 363.25L328.788 348.338L445.402 330.309L565.637 351.6L565.637 366.978L445.402 401.31L328.788 363.25Z" fill="#1187F1"/>
<path d="M445.407 401.175L328.96 363.169L328.96 348.439L445.398 330.437L565.465 351.698L565.465 366.893L445.407 401.175Z" stroke="#1268B5" stroke-width="0.3"/>
</g>
<path d="M329.312 348.415L328.933 348.523L329.303 348.644L445.331 386.512L445.397 386.533L445.466 386.514L565.114 351.802L565.504 351.689L565.118 351.572L445.469 315.283L445.404 315.264L445.339 315.282L329.312 348.415Z" fill="#6DB5F6" stroke="#1268B5" stroke-width="0.3"/>
<line x1="444.535" y1="402.295" x2="444.535" y2="591.483" stroke="#0F528C" stroke-width="0.3"/>
<g filter="url(#filter18_d_0_1)">
<path d="M129.04 588.367C127.051 587.679 125.784 586.212 125.784 584.598L125.784 574.518C125.783 572.619 127.531 570.954 130.037 570.465L242.411 548.555C243.422 548.358 244.488 548.368 245.49 548.585L362.077 573.796C364.494 574.319 366.15 575.944 366.15 577.793L366.15 587.833C366.15 589.522 364.763 591.048 362.635 591.701L246.3 627.388C244.809 627.846 243.125 627.819 241.666 627.314L129.04 588.367Z" fill="#041A2F"/>
<path d="M129.113 588.253C127.184 587.586 125.955 586.163 125.955 584.598L125.955 574.518C125.955 572.675 127.649 571.061 130.08 570.587L242.454 548.676C243.435 548.485 244.469 548.495 245.441 548.705L362.028 573.917C364.372 574.424 365.979 576 365.979 577.793L365.979 587.833C365.979 589.472 364.633 590.952 362.569 591.586L246.234 627.272C244.788 627.716 243.154 627.69 241.739 627.201L129.113 588.253Z" stroke="#1268B5" stroke-width="0.3"/>
</g>
<path d="M129.113 573.757C127.184 573.09 125.955 571.667 125.955 570.102L125.955 560.022C125.955 558.179 127.649 556.565 130.08 556.091L242.454 534.18C243.435 533.989 244.469 533.999 245.441 534.209L362.028 559.421C364.372 559.928 365.979 561.504 365.979 563.297L365.979 573.337C365.979 574.976 364.633 576.456 362.569 577.09L246.234 612.776C244.788 613.22 243.154 613.194 241.739 612.705L129.113 573.757Z" fill="#0B2D4B" stroke="#1268B5" stroke-width="0.3"/>
<path d="M129.113 558.295C127.184 557.628 125.955 556.205 125.955 554.639L125.955 544.56C125.955 542.717 127.649 541.102 130.08 540.628L242.454 518.718C243.435 518.526 244.469 518.536 245.441 518.747L362.028 543.958C364.372 544.465 365.979 546.042 365.979 547.835L365.979 557.874C365.979 559.513 364.633 560.994 362.569 561.627L246.234 597.314C244.788 597.758 243.154 597.732 241.739 597.243L129.113 558.295Z" fill="#114879" stroke="#1268B5" stroke-width="0.3"/>
<path d="M129.113 543.799C127.184 543.131 125.955 541.709 125.955 540.143L125.955 530.063C125.955 528.221 127.649 526.606 130.08 526.132L242.454 504.222C243.435 504.03 244.469 504.04 245.441 504.25L362.028 529.462C364.372 529.969 365.979 531.546 365.979 533.339L365.979 543.378C365.979 545.017 364.633 546.498 362.569 547.131L246.234 582.818C244.788 583.262 243.154 583.236 241.739 582.746L129.113 543.799Z" fill="#114D82" stroke="#1268B5" stroke-width="0.3"/>
<path d="M129.113 529.303C127.184 528.635 125.955 527.213 125.955 525.647L125.955 515.567C125.955 513.725 127.649 512.11 130.08 511.636L242.454 489.726C243.435 489.534 244.469 489.544 245.441 489.754L362.028 514.966C364.372 515.473 365.979 517.05 365.979 518.843L365.979 528.882C365.979 530.521 364.633 532.002 362.569 532.635L246.234 568.322C244.788 568.766 243.154 568.74 241.739 568.25L129.113 529.303Z" fill="#0F5A9C" stroke="#1268B5" stroke-width="0.3"/>
<path d="M129.113 513.84C127.184 513.173 125.955 511.75 125.955 510.185L125.955 500.105C125.955 498.263 127.649 496.648 130.08 496.174L242.454 474.263C243.435 474.072 244.469 474.082 245.441 474.292L362.028 499.504C364.372 500.011 365.979 501.587 365.979 503.38L365.979 513.42C365.979 515.059 364.633 516.539 362.569 517.173L246.234 552.859C244.788 553.303 243.154 553.277 241.739 552.788L129.113 513.84Z" fill="#156FBE" stroke="#1268B5" stroke-width="0.3"/>
<path d="M129.113 499.344C127.184 498.677 125.955 497.254 125.955 495.689L125.955 485.609C125.955 483.766 127.649 482.152 130.08 481.678L242.454 459.767C243.435 459.576 244.469 459.586 245.441 459.796L362.028 485.008C364.372 485.515 365.979 487.091 365.979 488.884L365.979 498.924C365.979 500.563 364.633 502.043 362.569 502.677L246.234 538.363C244.788 538.807 243.154 538.781 241.739 538.292L129.113 499.344Z" fill="#1383E7" stroke="#1268B5" stroke-width="0.3"/>
<path d="M129.113 483.882C127.184 483.215 125.955 481.792 125.955 480.226L125.955 470.147C125.955 468.304 127.649 466.689 130.08 466.215L242.454 444.305C243.435 444.113 244.469 444.123 245.441 444.334L362.028 469.545C364.372 470.052 365.979 471.629 365.979 473.422L365.979 483.461C365.979 485.1 364.633 486.581 362.569 487.214L246.234 522.901C244.788 523.345 243.154 523.319 241.739 522.83L129.113 483.882Z" fill="#268EE9" stroke="#1268B5" stroke-width="0.3"/>
<path d="M129.113 469.386C127.184 468.719 125.955 467.296 125.955 465.73L125.955 455.651C125.955 453.808 127.649 452.193 130.08 451.719L242.454 429.809C243.435 429.617 244.469 429.627 245.441 429.838L362.028 455.049C364.372 455.556 365.979 457.133 365.979 458.926L365.979 468.965C365.979 470.604 364.633 472.085 362.569 472.718L246.234 508.405C244.788 508.849 243.154 508.823 241.739 508.333L129.113 469.386Z" fill="#2A96F6" stroke="#1268B5" stroke-width="0.3"/>
<path d="M129.113 454.89C127.184 454.222 125.955 452.8 125.955 451.234L125.955 441.154C125.955 439.312 127.649 437.697 130.08 437.223L242.454 415.313C243.435 415.121 244.469 415.131 245.441 415.341L362.028 440.553C364.372 441.06 365.979 442.637 365.979 444.43L365.979 454.469C365.979 456.108 364.633 457.589 362.569 458.222L246.234 493.909C244.788 494.353 243.154 494.327 241.739 493.837L129.113 454.89Z" fill="#4BAAFE" stroke="#1268B5" stroke-width="0.3"/>
<path d="M129.113 440.394C127.184 439.726 125.955 438.304 125.955 436.738L125.955 426.658C125.955 424.816 127.649 423.201 130.08 422.727L242.454 400.817C243.435 400.625 244.469 400.635 245.441 400.845L362.028 426.057C364.372 426.564 365.979 428.141 365.979 429.934L365.979 439.973C365.979 441.612 364.633 443.093 362.569 443.726L246.234 479.413C244.788 479.857 243.154 479.831 241.739 479.341L129.113 440.394Z" fill="#6BB8FD" stroke="#1268B5" stroke-width="0.3"/>
<ellipse cx="335.927" cy="460.274" rx="4.10382" ry="3.38241" fill="#9CBED6" fill-opacity="0.43"/>
<ellipse cx="312.476" cy="467.039" rx="4.10382" ry="3.38241" fill="#9CBED6" fill-opacity="0.43"/>
<ellipse cx="290.199" cy="473.804" rx="4.10382" ry="3.38241" fill="#9CBED6" fill-opacity="0.43"/>
<ellipse cx="265.576" cy="480.569" rx="4.10382" ry="3.38241" fill="#9CBED6" fill-opacity="0.43"/>
<ellipse cx="354.687" cy="453.51" rx="4.10382" ry="3.38241" fill="#9CBED6" fill-opacity="0.43"/>
<ellipse cx="335.927" cy="473.804" rx="4.10382" ry="3.38241" fill="#9CBED6" fill-opacity="0.43"/>
<ellipse cx="312.476" cy="480.569" rx="4.10382" ry="3.38241" fill="#9CBED6" fill-opacity="0.43"/>
<ellipse cx="290.199" cy="487.334" rx="4.10382" ry="3.38241" fill="#9CBED6" fill-opacity="0.43"/>
<ellipse cx="265.576" cy="494.099" rx="4.10382" ry="3.38241" fill="#9CBED6" fill-opacity="0.43"/>
<ellipse cx="354.687" cy="467.039" rx="4.10382" ry="3.38241" fill="#9CBED6" fill-opacity="0.43"/>
<ellipse cx="335.927" cy="490.233" rx="4.10382" ry="3.38241" fill="#9CBED6" fill-opacity="0.43"/>
<ellipse cx="312.476" cy="496.998" rx="4.10382" ry="3.38241" fill="#9CBED6" fill-opacity="0.43"/>
<ellipse cx="290.199" cy="503.762" rx="4.10382" ry="3.38241" fill="#9CBED6" fill-opacity="0.43"/>
<ellipse cx="265.576" cy="510.527" rx="4.10382" ry="3.38241" fill="#9CBED6" fill-opacity="0.43"/>
<ellipse cx="354.687" cy="483.468" rx="4.10382" ry="3.38241" fill="#9CBED6" fill-opacity="0.43"/>
<ellipse cx="335.927" cy="503.762" rx="4.10382" ry="3.38241" fill="#9CBED6" fill-opacity="0.43"/>
<ellipse cx="312.476" cy="510.527" rx="4.10382" ry="3.38241" fill="#9CBED6" fill-opacity="0.43"/>
<ellipse cx="290.199" cy="517.292" rx="4.10382" ry="3.38241" fill="#9CBED6" fill-opacity="0.43"/>
<ellipse cx="265.576" cy="524.057" rx="4.10382" ry="3.38241" fill="#9CBED6" fill-opacity="0.43"/>
<ellipse cx="354.687" cy="496.998" rx="4.10382" ry="3.38241" fill="#9CBED6" fill-opacity="0.43"/>
<ellipse cx="335.927" cy="517.292" rx="4.10382" ry="3.38241" fill="#9CBED6" fill-opacity="0.43"/>
<ellipse cx="312.476" cy="524.057" rx="4.10382" ry="3.38241" fill="#9CBED6" fill-opacity="0.43"/>
<ellipse cx="290.199" cy="530.822" rx="4.10382" ry="3.38241" fill="#9CBED6" fill-opacity="0.43"/>
<ellipse cx="265.576" cy="537.586" rx="4.10382" ry="3.38241" fill="#9CBED6" fill-opacity="0.43"/>
<ellipse cx="354.687" cy="510.527" rx="4.10382" ry="3.38241" fill="#9CBED6" fill-opacity="0.43"/>
<ellipse cx="335.927" cy="534.687" rx="4.10382" ry="3.38241" fill="#9CBED6" fill-opacity="0.43"/>
<ellipse cx="312.476" cy="541.452" rx="4.10382" ry="3.38241" fill="#9CBED6" fill-opacity="0.43"/>
<ellipse cx="290.199" cy="548.217" rx="4.10382" ry="3.38241" fill="#9CBED6" fill-opacity="0.43"/>
<ellipse cx="265.576" cy="554.982" rx="4.10382" ry="3.38241" fill="#9CBED6" fill-opacity="0.43"/>
<ellipse cx="354.687" cy="527.923" rx="4.10382" ry="3.38241" fill="#9CBED6" fill-opacity="0.43"/>
<ellipse cx="335.927" cy="548.217" rx="4.10382" ry="3.38241" fill="#9CBED6" fill-opacity="0.43"/>
<ellipse cx="312.476" cy="554.982" rx="4.10382" ry="3.38241" fill="#9CBED6" fill-opacity="0.43"/>
<ellipse cx="290.199" cy="561.747" rx="4.10382" ry="3.38241" fill="#9CBED6" fill-opacity="0.43"/>
<ellipse cx="265.576" cy="568.511" rx="4.10382" ry="3.38241" fill="#9CBED6" fill-opacity="0.43"/>
<ellipse cx="354.687" cy="541.452" rx="4.10382" ry="3.38241" fill="#9CBED6" fill-opacity="0.43"/>
<ellipse cx="335.927" cy="562.713" rx="4.10382" ry="3.38241" fill="#9CBED6" fill-opacity="0.43"/>
<ellipse cx="312.476" cy="569.478" rx="4.10382" ry="3.38241" fill="#9CBED6" fill-opacity="0.43"/>
<ellipse cx="290.199" cy="576.243" rx="4.10382" ry="3.38241" fill="#9CBED6" fill-opacity="0.43"/>
<ellipse cx="265.576" cy="583.008" rx="4.10382" ry="3.38241" fill="#9CBED6" fill-opacity="0.43"/>
<ellipse cx="354.687" cy="555.948" rx="4.10382" ry="3.38241" fill="#9CBED6" fill-opacity="0.43"/>
<ellipse cx="335.927" cy="579.142" rx="4.10382" ry="3.38241" fill="#9CBED6" fill-opacity="0.43"/>
<ellipse cx="312.476" cy="585.907" rx="4.10382" ry="3.38241" fill="#9CBED6" fill-opacity="0.43"/>
<ellipse cx="290.199" cy="592.672" rx="4.10382" ry="3.38241" fill="#9CBED6" fill-opacity="0.43"/>
<ellipse cx="265.576" cy="599.436" rx="4.10382" ry="3.38241" fill="#9CBED6" fill-opacity="0.43"/>
<ellipse cx="354.687" cy="572.377" rx="4.10382" ry="3.38241" fill="#9CBED6" fill-opacity="0.43"/>
<ellipse cx="335.927" cy="592.672" rx="4.10382" ry="3.38241" fill="#9CBED6" fill-opacity="0.43"/>
<ellipse cx="312.476" cy="599.436" rx="4.10382" ry="3.38241" fill="#9CBED6" fill-opacity="0.43"/>
<ellipse cx="290.199" cy="606.201" rx="4.10382" ry="3.38241" fill="#9CBED6" fill-opacity="0.43"/>
<ellipse cx="265.576" cy="612.966" rx="4.10382" ry="3.38241" fill="#9CBED6" fill-opacity="0.43"/>
<ellipse cx="354.687" cy="585.907" rx="4.10382" ry="3.38241" fill="#9CBED6" fill-opacity="0.43"/>
<path d="M132.495 443.362L143.047 446.87V456.892L132.495 453.384V443.362Z" fill="#D9D9D9" fill-opacity="0.48"/>
<path d="M153.6 451.094L164.153 454.601V464.623L153.6 461.116V451.094Z" fill="#D9D9D9" fill-opacity="0.48"/>
<path d="M174.705 457.858L185.258 461.366V471.388L174.705 467.88V457.858Z" fill="#D9D9D9" fill-opacity="0.48"/>
<path d="M195.811 465.59L206.363 469.097V479.119L195.811 475.612V465.59Z" fill="#D9D9D9" fill-opacity="0.48"/>
<path d="M219.261 473.321L229.814 476.829V486.85L219.261 483.343V473.321Z" fill="#D9D9D9" fill-opacity="0.48"/>
<path d="M132.495 458.825L143.047 462.333V472.355L132.495 468.847V458.825Z" fill="#D9D9D9" fill-opacity="0.48"/>
<path d="M153.6 466.556L164.153 470.064V480.086L153.6 476.578V466.556Z" fill="#D9D9D9" fill-opacity="0.48"/>
<path d="M174.705 473.321L185.258 476.829V486.851L174.705 483.343V473.321Z" fill="#D9D9D9" fill-opacity="0.48"/>
<path d="M195.811 481.052L206.363 484.56V494.582L195.811 491.074V481.052Z" fill="#D9D9D9" fill-opacity="0.48"/>
<path d="M219.261 488.783L229.814 492.291V502.313L219.261 498.805V488.783Z" fill="#D9D9D9" fill-opacity="0.48"/>
<path d="M132.495 473.321L143.047 476.829V486.85L132.495 483.343V473.321Z" fill="#D9D9D9" fill-opacity="0.48"/>
<path d="M153.6 481.052L164.153 484.56V494.582L153.6 491.074V481.052Z" fill="#D9D9D9" fill-opacity="0.48"/>
<path d="M174.705 487.817L185.258 491.325V501.346L174.705 497.839V487.817Z" fill="#D9D9D9" fill-opacity="0.48"/>
<path d="M195.811 495.548L206.363 499.056V509.078L195.811 505.57V495.548Z" fill="#D9D9D9" fill-opacity="0.48"/>
<path d="M219.261 503.279L229.814 506.787V516.809L219.261 513.301V503.279Z" fill="#D9D9D9" fill-opacity="0.48"/>
<path d="M132.495 487.817L143.047 491.325V501.346L132.495 497.839V487.817Z" fill="#D9D9D9" fill-opacity="0.48"/>
<path d="M153.6 495.548L164.153 499.056V509.078L153.6 505.57V495.548Z" fill="#D9D9D9" fill-opacity="0.48"/>
<path d="M174.705 502.313L185.258 505.821V515.843L174.705 512.335V502.313Z" fill="#D9D9D9" fill-opacity="0.48"/>
<path d="M195.811 510.044L206.363 513.552V523.574L195.811 520.066V510.044Z" fill="#D9D9D9" fill-opacity="0.48"/>
<path d="M219.261 517.775L229.814 521.283V531.305L219.261 527.797V517.775Z" fill="#D9D9D9" fill-opacity="0.48"/>
<path d="M132.495 503.279L143.047 506.787V516.809L132.495 513.301V503.279Z" fill="#D9D9D9" fill-opacity="0.48"/>
<path d="M153.6 511.01L164.153 514.518V524.54L153.6 521.032V511.01Z" fill="#D9D9D9" fill-opacity="0.48"/>
<path d="M174.705 517.775L185.258 521.283V531.305L174.705 527.797V517.775Z" fill="#D9D9D9" fill-opacity="0.48"/>
<path d="M195.811 525.507L206.363 529.014V539.036L195.811 535.529V525.507Z" fill="#D9D9D9" fill-opacity="0.48"/>
<path d="M219.261 533.238L229.814 536.746V546.767L219.261 543.26V533.238Z" fill="#D9D9D9" fill-opacity="0.48"/>
<path d="M132.495 517.775L143.047 521.283V531.305L132.495 527.797V517.775Z" fill="#D9D9D9" fill-opacity="0.48"/>
<path d="M153.6 525.507L164.153 529.014V539.036L153.6 535.529V525.507Z" fill="#D9D9D9" fill-opacity="0.48"/>
<path d="M174.705 532.271L185.258 535.779V545.801L174.705 542.293V532.271Z" fill="#D9D9D9" fill-opacity="0.48"/>
<path d="M195.811 540.003L206.363 543.51V553.532L195.811 550.025V540.003Z" fill="#D9D9D9" fill-opacity="0.48"/>
<path d="M219.261 547.734L229.814 551.242V561.264L219.261 557.756V547.734Z" fill="#D9D9D9" fill-opacity="0.48"/>
<path d="M132.495 533.238L143.047 536.746V546.767L132.495 543.26V533.238Z" fill="#D9D9D9" fill-opacity="0.48"/>
<path d="M153.6 540.969L164.153 544.477V554.499L153.6 550.991V540.969Z" fill="#D9D9D9" fill-opacity="0.48"/>
<path d="M174.705 547.734L185.258 551.242V561.263L174.705 557.756V547.734Z" fill="#D9D9D9" fill-opacity="0.48"/>
<path d="M195.811 555.465L206.363 558.973V568.995L195.811 565.487V555.465Z" fill="#D9D9D9" fill-opacity="0.48"/>
<path d="M219.261 563.196L229.814 566.704V576.726L219.261 573.218V563.196Z" fill="#D9D9D9" fill-opacity="0.48"/>
<path d="M132.495 548.7L143.047 552.208V562.23L132.495 558.722V548.7Z" fill="#D9D9D9" fill-opacity="0.48"/>
<path d="M153.6 556.431L164.153 559.939V569.961L153.6 566.453V556.431Z" fill="#D9D9D9" fill-opacity="0.48"/>
<path d="M174.705 563.196L185.258 566.704V576.726L174.705 573.218V563.196Z" fill="#D9D9D9" fill-opacity="0.48"/>
<path d="M195.811 570.927L206.363 574.435V584.457L195.811 580.949V570.927Z" fill="#D9D9D9" fill-opacity="0.48"/>
<path d="M219.261 578.659L229.814 582.166V592.188L219.261 588.681V578.659Z" fill="#D9D9D9" fill-opacity="0.48"/>
<path d="M132.495 563.196L143.047 566.704V576.726L132.495 573.218V563.196Z" fill="#D9D9D9" fill-opacity="0.48"/>
<path d="M153.6 570.928L164.153 574.435V584.457L153.6 580.95V570.928Z" fill="#D9D9D9" fill-opacity="0.48"/>
<path d="M174.705 577.692L185.258 581.2V591.222L174.705 587.714V577.692Z" fill="#D9D9D9" fill-opacity="0.48"/>
<path d="M195.811 585.424L206.363 588.931V598.953L195.811 595.446V585.424Z" fill="#D9D9D9" fill-opacity="0.48"/>
<path d="M219.261 593.155L229.814 596.662V606.684L219.261 603.177V593.155Z" fill="#D9D9D9" fill-opacity="0.48"/>
<path d="M132.495 577.692L143.047 581.2V591.222L132.495 587.714V577.692Z" fill="#D9D9D9" fill-opacity="0.48"/>
<path d="M153.6 585.424L164.153 588.931V598.953L153.6 595.445V585.424Z" fill="#D9D9D9" fill-opacity="0.48"/>
<path d="M174.705 592.188L185.258 595.696V605.718L174.705 602.21V592.188Z" fill="#D9D9D9" fill-opacity="0.48"/>
<path d="M195.811 599.92L206.363 603.427V613.449L195.811 609.941V599.92Z" fill="#D9D9D9" fill-opacity="0.48"/>
<path d="M219.261 607.651L229.814 611.158V621.18L219.261 617.673V607.651Z" fill="#D9D9D9" fill-opacity="0.48"/>
<g filter="url(#filter19_d_0_1)">
<path d="M269.57 408.353L269.749 406.493L296.251 404.943L323.099 408.322L322.914 410.241L295.4 413.803L269.57 408.353Z" fill="#1187F1"/>
<path d="M295.406 413.718L269.772 408.309L269.94 406.562L296.248 405.024L322.896 408.378L322.723 410.181L295.406 413.718Z" stroke="#1268B5" stroke-width="0.3"/>
</g>
<path d="M269.807 406.445L269.374 406.501L269.797 406.59L295.497 412.012L295.573 412.028L295.651 412.018L323.038 408.405L323.483 408.346L323.042 408.259L296.507 403.012L296.433 402.997L296.358 403.007L269.807 406.445Z" fill="#6DB5F6" stroke="#1268B5" stroke-width="0.3"/>
<g filter="url(#filter20_d_0_1)">
<path d="M285.985 400.898L286.164 399.037L312.666 397.487L339.514 400.866L339.329 402.785L311.815 406.348L285.985 400.898Z" fill="#1187F1"/>
<path d="M311.821 406.262L286.187 400.853L286.355 399.107L312.663 397.568L339.311 400.922L339.138 402.725L311.821 406.262Z" stroke="#1268B5" stroke-width="0.3"/>
</g>
<path d="M286.222 398.989L285.789 399.045L286.212 399.134L311.912 404.556L311.988 404.573L312.066 404.562L339.453 400.949L339.898 400.89L339.457 400.803L312.922 395.556L312.848 395.541L312.773 395.551L286.222 398.989Z" fill="#6DB5F6" stroke="#1268B5" stroke-width="0.3"/>
<g filter="url(#filter21_d_0_1)">
<path d="M304.746 393.442L304.924 391.581L331.427 390.032L358.274 393.411L358.089 395.329L330.575 398.892L304.746 393.442Z" fill="#1187F1"/>
<path d="M330.581 398.806L304.947 393.398L305.115 391.651L331.424 390.113L358.071 393.466L357.898 395.269L330.581 398.806Z" stroke="#1268B5" stroke-width="0.3"/>
</g>
<path d="M304.982 391.533L304.55 391.589L304.972 391.678L330.672 397.101L330.748 397.117L330.827 397.107L358.213 393.493L358.659 393.435L358.217 393.347L331.682 388.1L331.608 388.086L331.534 388.095L304.982 391.533Z" fill="#6DB5F6" stroke="#1268B5" stroke-width="0.3"/>
<g filter="url(#filter22_d_0_1)">
<path d="M324.678 386.918L324.857 385.057L351.359 383.508L378.207 386.887L378.022 388.806L350.508 392.368L324.678 386.918Z" fill="#1187F1"/>
<path d="M350.514 392.283L324.88 386.874L325.048 385.127L351.356 383.589L378.004 386.943L377.831 388.746L350.514 392.283Z" stroke="#1268B5" stroke-width="0.3"/>
</g>
<path d="M324.915 385.01L324.483 385.066L324.905 385.155L350.605 390.577L350.681 390.593L350.759 390.583L378.146 386.97L378.591 386.911L378.15 386.824L351.615 381.577L351.541 381.562L351.466 381.572L324.915 385.01Z" fill="#6DB5F6" stroke="#1268B5" stroke-width="0.3"/>
<g filter="url(#filter23_d_0_1)">
<path d="M339.921 379.463L340.1 377.602L366.602 376.052L393.449 379.431L393.265 381.35L365.751 384.912L339.921 379.463Z" fill="#1187F1"/>
<path d="M365.757 384.827L340.123 379.418L340.291 377.671L366.599 376.133L393.247 379.487L393.073 381.29L365.757 384.827Z" stroke="#1268B5" stroke-width="0.3"/>
</g>
<path d="M340.158 377.554L339.725 377.61L340.148 377.699L365.848 383.121L365.924 383.138L366.002 383.127L393.389 379.514L393.834 379.455L393.393 379.368L366.858 374.121L366.784 374.106L366.709 374.116L340.158 377.554Z" fill="#6DB5F6" stroke="#1268B5" stroke-width="0.3"/>
<g filter="url(#filter24_d_0_1)">
<path d="M356.337 372.939L356.515 371.078L383.018 369.528L409.865 372.907L409.681 374.826L382.166 378.389L356.337 372.939Z" fill="#1187F1"/>
<path d="M382.172 378.303L356.538 372.895L356.706 371.148L383.015 369.609L409.662 372.963L409.489 374.766L382.172 378.303Z" stroke="#1268B5" stroke-width="0.3"/>
</g>
<path d="M356.573 371.03L356.14 371.086L356.563 371.175L382.263 376.598L382.339 376.614L382.417 376.604L409.804 372.99L410.249 372.931L409.808 372.844L383.273 367.597L383.199 367.583L383.124 367.592L356.573 371.03Z" fill="#6DB5F6" stroke="#1268B5" stroke-width="0.3"/>
<g filter="url(#filter25_d_0_1)">
<path d="M671.054 323.545L670.9 321.684L648.056 320.135L624.915 323.513L625.074 325.432L648.79 328.995L671.054 323.545Z" fill="#1187F1"/>
<path d="M648.783 328.898L670.857 323.494L670.714 321.763L648.061 320.226L625.113 323.577L625.261 325.365L648.783 328.898Z" stroke="#1268B5" stroke-width="0.3"/>
</g>
<path d="M670.857 321.626L671.281 321.69L670.87 321.791L648.717 327.213L648.643 327.231L648.566 327.22L624.96 323.606L624.524 323.539L624.954 323.441L647.826 318.194L647.898 318.177L647.971 318.188L670.857 321.626Z" fill="#6DB5F6" stroke="#1268B5" stroke-width="0.3"/>
<g filter="url(#filter26_d_0_1)">
<path d="M657.916 316.089L657.762 314.228L634.918 312.679L611.776 316.058L611.935 317.977L635.651 321.539L657.916 316.089Z" fill="#1187F1"/>
<path d="M635.644 321.442L657.719 316.039L657.575 314.307L634.922 312.771L611.974 316.121L612.122 317.909L635.644 321.442Z" stroke="#1268B5" stroke-width="0.3"/>
</g>
<path d="M657.719 314.171L658.143 314.234L657.731 314.335L635.579 319.757L635.504 319.776L635.428 319.764L611.822 316.151L611.385 316.084L611.815 315.985L634.687 310.738L634.759 310.722L634.833 310.733L657.719 314.171Z" fill="#6DB5F6" stroke="#1268B5" stroke-width="0.3"/>
<g filter="url(#filter27_d_0_1)">
<path d="M643.766 309.566L643.612 307.705L620.768 306.155L597.627 309.534L597.786 311.453L621.502 315.015L643.766 309.566Z" fill="#1187F1"/>
<path d="M621.495 314.918L643.569 309.515L643.426 307.783L620.773 306.247L597.825 309.597L597.973 311.385L621.495 314.918Z" stroke="#1268B5" stroke-width="0.3"/>
</g>
<path d="M643.57 307.647L643.994 307.711L643.582 307.811L621.43 313.234L621.355 313.252L621.279 313.24L597.673 309.627L597.236 309.56L597.666 309.461L620.539 304.214L620.611 304.198L620.684 304.209L643.57 307.647Z" fill="#6DB5F6" stroke="#1268B5" stroke-width="0.3"/>
<g filter="url(#filter28_d_0_1)">
<path d="M629.445 303.042L629.291 301.181L606.447 299.631L583.305 303.01L583.464 304.929L607.18 308.492L629.445 303.042Z" fill="#1187F1"/>
<path d="M607.173 308.395L629.248 302.991L629.104 301.26L606.451 299.723L583.503 303.074L583.651 304.862L607.173 308.395Z" stroke="#1268B5" stroke-width="0.3"/>
</g>
<path d="M629.248 301.123L629.672 301.187L629.26 301.288L607.108 306.71L607.033 306.728L606.957 306.716L583.351 303.103L582.914 303.036L583.344 302.938L606.216 297.691L606.288 297.674L606.362 297.685L629.248 301.123Z" fill="#6DB5F6" stroke="#1268B5" stroke-width="0.3"/>
<g filter="url(#filter29_d_0_1)">
<path d="M615.295 295.586L615.141 293.725L592.297 292.176L569.156 295.555L569.315 297.474L593.031 301.036L615.295 295.586Z" fill="#1187F1"/>
<path d="M593.024 300.939L615.098 295.536L614.955 293.804L592.302 292.267L569.354 295.618L569.502 297.406L593.024 300.939Z" stroke="#1268B5" stroke-width="0.3"/>
</g>
<path d="M615.098 293.668L615.522 293.731L615.111 293.832L592.958 299.254L592.884 299.273L592.807 299.261L569.201 295.648L568.765 295.581L569.195 295.482L592.067 290.235L592.139 290.219L592.212 290.23L615.098 293.668Z" fill="#6DB5F6" stroke="#1268B5" stroke-width="0.3"/>
<g filter="url(#filter30_d_0_1)">
<path d="M599.124 288.13L598.97 286.27L576.126 284.72L552.985 288.099L553.144 290.018L576.86 293.58L599.124 288.13Z" fill="#1187F1"/>
<path d="M576.853 293.483L598.927 288.08L598.784 286.348L576.131 284.812L553.183 288.162L553.331 289.95L576.853 293.483Z" stroke="#1268B5" stroke-width="0.3"/>
</g>
<path d="M598.927 286.212L599.351 286.276L598.94 286.376L576.787 291.799L576.713 291.817L576.636 291.805L553.03 288.192L552.594 288.125L553.024 288.026L575.896 282.779L575.968 282.763L576.041 282.774L598.927 286.212Z" fill="#6DB5F6" stroke="#1268B5" stroke-width="0.3"/>
<g filter="url(#filter31_d_0_1)">
<path d="M581.943 281.607L581.789 279.746L558.945 278.196L535.804 281.575L535.963 283.494L559.679 287.057L581.943 281.607Z" fill="#1187F1"/>
<path d="M559.672 286.96L581.746 281.556L581.603 279.825L558.949 278.288L536.002 281.639L536.15 283.426L559.672 286.96Z" stroke="#1268B5" stroke-width="0.3"/>
</g>
<path d="M581.747 279.688L582.171 279.752L581.759 279.853L559.607 285.275L559.532 285.293L559.456 285.281L535.85 281.668L535.413 281.601L535.843 281.503L558.715 276.256L558.787 276.239L558.861 276.25L581.747 279.688Z" fill="#6DB5F6" stroke="#1268B5" stroke-width="0.3"/>
<g filter="url(#filter32_d_0_1)">
<path d="M568.804 274.151L568.65 272.29L545.806 270.741L522.665 274.12L522.824 276.039L546.54 279.601L568.804 274.151Z" fill="#1187F1"/>
<path d="M546.533 279.504L568.607 274.101L568.464 272.369L545.811 270.832L522.863 274.183L523.011 275.971L546.533 279.504Z" stroke="#1268B5" stroke-width="0.3"/>
</g>
<path d="M568.608 272.232L569.031 272.296L568.62 272.397L546.467 277.819L546.393 277.837L546.317 277.826L522.71 274.212L522.274 274.146L522.704 274.047L545.576 268.8L545.648 268.783L545.721 268.794L568.608 272.232Z" fill="#6DB5F6" stroke="#1268B5" stroke-width="0.3"/>
<g filter="url(#filter33_d_0_1)">
<path d="M554.655 267.627L554.501 265.767L531.657 264.217L508.516 267.596L508.675 269.515L532.391 273.077L554.655 267.627Z" fill="#1187F1"/>
<path d="M532.384 272.98L554.458 267.577L554.315 265.845L531.662 264.309L508.714 267.659L508.862 269.447L532.384 272.98Z" stroke="#1268B5" stroke-width="0.3"/>
</g>
<path d="M554.459 265.709L554.882 265.772L554.471 265.873L532.318 271.295L532.244 271.314L532.168 271.302L508.561 267.689L508.125 267.622L508.555 267.523L531.427 262.276L531.499 262.26L531.572 262.271L554.459 265.709Z" fill="#6DB5F6" stroke="#1268B5" stroke-width="0.3"/>
<g filter="url(#filter34_d_0_1)">
<ellipse cx="420.348" cy="606.756" rx="83.8351" ry="35.0528" fill="#1A77C8"/>
</g>
<g filter="url(#filter35_d_0_1)">
<ellipse cx="420.348" cy="592.985" rx="83.8351" ry="35.0528" fill="#2B9BFE"/>
</g>
<path d="M410.532 573.663V530.164L474.134 545.469V591.751L410.532 573.663Z" fill="#D9D9D9" stroke="black" stroke-width="0.3"/>
<path d="M384.736 582.05V538.552L448.338 553.857V600.138L384.736 582.05Z" fill="#D9D9D9" stroke="black" stroke-width="0.3"/>
<path d="M363.045 590.904V547.405L426.647 562.711V608.992L363.045 590.904Z" fill="#D9D9D9" stroke="black" stroke-width="0.3"/>
<path d="M496.32 229.786V186.298L456.26 201.561V247.824L496.32 229.786Z" fill="#D9D9D9" stroke="black" stroke-width="0.3"/>
<path d="M512.611 238.173V194.686L472.552 209.949V256.212L512.611 238.173Z" fill="#D9D9D9" stroke="black" stroke-width="0.3"/>
<path d="M526.311 247.027V203.54L486.252 218.803V265.065L526.311 247.027Z" fill="#D9D9D9" stroke="black" stroke-width="0.3"/>
<path d="M676.045 352.868L731.019 365.798L705.695 377.943L647.244 364.195L676.045 352.868Z" fill="#D9D9D9" stroke="black" stroke-width="0.3"/>
<path d="M667.979 343.54L722.953 356.47L697.63 368.615L639.178 354.867L667.979 343.54Z" fill="#D9D9D9" stroke="black" stroke-width="0.3"/>
<path d="M658.92 335.161L713.894 348.091L688.571 360.236L630.119 346.488L658.92 335.161Z" fill="#D9D9D9" stroke="black" stroke-width="0.3"/>
<path d="M232.408 426L263.902 443.379L239.266 452.916L205.771 434.433L232.408 426Z" fill="#D9D9D9" stroke="black" stroke-width="0.3"/>
<path d="M231.902 416.249L263.396 433.628L238.761 443.164L205.266 424.681L231.902 416.249Z" fill="#D9D9D9" stroke="black" stroke-width="0.3"/>
<path d="M444.535 329.489V285.991L508.137 301.296V347.577L444.535 329.489Z" fill="#D9D9D9" stroke="black" stroke-width="0.3"/>
<path d="M405.056 339.859L444.384 328.826L507.748 347.309L467.836 358.803L405.056 339.859Z" fill="#D9D9D9" stroke="black" stroke-width="0.3"/>
<path d="M700.234 328.219C695.572 322.994 694.64 319.859 701.166 319.859C707.692 319.859 707.692 312.545 701.166 312.545C698.369 312.545 695.572 310.455 700.234 305.23M693.397 332.398H707.07C708.444 332.398 709.557 331.151 709.557 329.612C709.557 328.842 709 328.219 708.314 328.219H692.154C691.467 328.219 690.911 328.842 690.911 329.612C690.911 331.151 692.024 332.398 693.397 332.398ZM687.789 321.949H690.304C691.136 321.949 691.868 321.33 692.096 320.433C692.437 319.098 691.542 317.769 690.304 317.769H687.789C686.55 317.769 685.656 319.098 685.996 320.433C686.225 321.33 686.957 321.949 687.789 321.949ZM712.029 315.679H714.543C715.376 315.679 716.107 315.061 716.336 314.164C716.676 312.829 715.782 311.5 714.543 311.5H712.029C710.79 311.5 709.896 312.829 710.236 314.164C710.464 315.061 711.196 315.679 712.029 315.679ZM696.505 299.483L696.293 299.838C695.843 300.596 695.084 301.051 694.272 301.051H693.708C692.678 301.051 691.843 301.986 691.843 303.14C691.843 304.295 692.678 305.23 693.708 305.23H706.76C707.79 305.23 708.624 304.295 708.624 303.14C708.624 301.986 707.79 301.051 706.76 301.051H706.195C705.383 301.051 704.625 300.596 704.174 299.838L703.963 299.483C703.38 298.504 702.4 297.916 701.35 297.916H699.118C698.068 297.916 697.087 298.504 696.505 299.483Z" stroke="#0F528C" stroke-width="1.25" stroke-linecap="round"/>
<g filter="url(#filter36_d_0_1)">
<path d="M173.87 265.951L179.184 258.176C180.258 256.604 183.264 256.485 184.564 257.964L191.802 266.201C193.254 267.852 196.694 267.465 197.4 265.571L204.867 245.544M195.569 248.94L205.386 244.794L211.053 251.975M176.969 269.352C176.969 271.23 174.888 272.753 172.32 272.753C169.752 272.753 167.67 271.23 167.67 269.352C167.67 267.473 169.752 265.951 172.32 265.951C174.888 265.951 176.969 267.473 176.969 269.352Z" stroke="#0F528C" stroke-width="1.25" stroke-linecap="round" shape-rendering="crispEdges"/>
</g>
<path d="M277.887 187.944V160.918M277.887 160.918L290.785 169.927M277.887 160.918L264.989 169.927" stroke="#0F5A9C" stroke-width="1.25" stroke-linecap="round"/>
<g filter="url(#filter37_d_0_1)">
<path d="M341.236 175.911L378.757 196.414C364.088 196.298 353.358 196.938 347.066 204.72L311.923 186.162C320.011 178.396 325.789 175.435 341.236 175.911Z" fill="#D9D9D9"/>
<path d="M323.887 178.065C328.23 176.43 333.492 175.808 341.178 176.042L378.21 196.278C371.109 196.231 364.925 196.382 359.732 197.477C354.448 198.592 350.185 200.684 347.021 204.535L312.168 186.131C316.157 182.314 319.579 179.688 323.887 178.065Z" stroke="black" stroke-width="0.3"/>
</g>
<g filter="url(#filter38_d_0_1)">
<path d="M313.095 186.162L347.065 204.72C332.397 204.604 330.526 209.135 324.234 216.916L283.782 196.413C291.87 188.647 297.649 185.686 313.095 186.162Z" fill="#D9D9D9"/>
<path d="M295.746 188.316C300.089 186.681 305.351 186.059 313.037 186.293L346.522 204.585C339.506 204.586 335.456 205.69 332.403 207.757C330.842 208.814 329.55 210.118 328.257 211.639C327.494 212.537 326.726 213.517 325.901 214.568C325.359 215.26 324.793 215.983 324.187 216.734L284.03 196.38C288.017 192.564 291.438 189.938 295.746 188.316Z" stroke="black" stroke-width="0.3"/>
</g>
<g filter="url(#filter39_d_0_1)">
<path d="M340.063 174.979L377.584 195.482C362.915 195.366 352.771 196.938 346.479 204.72L310.75 185.23C318.838 177.464 324.617 174.503 340.063 174.979Z" fill="#D9D9D9"/>
<path d="M322.715 177.133C327.057 175.498 332.32 174.876 340.005 175.11L377.038 195.346C362.733 195.275 352.707 196.885 346.436 204.534L310.994 185.201C314.983 181.383 318.405 178.756 322.715 177.133Z" stroke="black" stroke-width="0.3"/>
</g>
<g filter="url(#filter40_d_0_1)">
<path d="M311.304 185.614L346.479 204.72C331.811 204.604 328.735 208.587 322.443 216.369L281.991 195.866C290.079 188.1 295.857 185.139 311.304 185.614Z" fill="#D9D9D9"/>
<path d="M293.955 187.769C298.297 186.134 303.56 185.512 311.246 185.745L345.933 204.585C338.908 204.579 334.569 205.548 331.225 207.476C327.875 209.408 325.542 212.294 322.498 216.06C322.464 216.102 322.43 216.144 322.396 216.186L282.238 195.833C286.226 192.017 289.647 189.391 293.955 187.769Z" stroke="black" stroke-width="0.3"/>
</g>
<g filter="url(#filter41_d_0_1)">
<path d="M338.338 174.047L375.858 194.55C361.189 194.434 352.804 196.938 346.512 204.72L309.025 184.298C317.113 176.532 322.891 173.571 338.338 174.047Z" fill="#D9D9D9"/>
<path d="M320.989 176.201C325.331 174.566 330.594 173.944 338.28 174.178L375.313 194.414C368.23 194.39 362.611 194.997 357.983 196.552C353.278 198.132 349.61 200.688 346.469 204.534L309.268 184.269C313.257 180.451 316.679 177.824 320.989 176.201Z" stroke="black" stroke-width="0.3"/>
</g>
<g filter="url(#filter42_d_0_1)">
<path d="M309.578 184.217L347.098 204.72C332.43 204.604 327.009 207.19 320.717 214.971L280.265 194.468C288.353 186.702 294.131 183.741 309.578 184.217Z" fill="#D9D9D9"/>
<path d="M292.229 186.371C296.571 184.736 301.834 184.114 309.52 184.348L346.553 204.585C339.507 204.562 334.605 205.188 330.695 206.766C326.719 208.371 323.788 210.952 320.67 214.789L280.512 194.435C284.5 190.619 287.921 187.993 292.229 186.371Z" stroke="black" stroke-width="0.3"/>
</g>
<defs>
<filter id="filter0_d_0_1" x="583.777" y="491.355" width="190.223" height="88.8287" filterUnits="userSpaceOnUse" color-interpolation-filters="sRGB">
<feFlood flood-opacity="0" result="BackgroundImageFix"/>
<feColorMatrix in="SourceAlpha" type="matrix" values="0 0 0 0 0 0 0 0 0 0 0 0 0 0 0 0 0 0 127 0" result="hardAlpha"/>
<feOffset dy="6"/>
<feGaussianBlur stdDeviation="3"/>
<feComposite in2="hardAlpha" operator="out"/>
<feColorMatrix type="matrix" values="0 0 0 0 0 0 0 0 0 0 0 0 0 0 0 0 0 0 0.25 0"/>
<feBlend mode="normal" in2="BackgroundImageFix" result="effect1_dropShadow_0_1"/>
<feBlend mode="normal" in="SourceGraphic" in2="effect1_dropShadow_0_1" result="shape"/>
</filter>
<filter id="filter1_d_0_1" x="583.777" y="471.862" width="190.223" height="88.8287" filterUnits="userSpaceOnUse" color-interpolation-filters="sRGB">
<feFlood flood-opacity="0" result="BackgroundImageFix"/>
<feColorMatrix in="SourceAlpha" type="matrix" values="0 0 0 0 0 0 0 0 0 0 0 0 0 0 0 0 0 0 127 0" result="hardAlpha"/>
<feOffset dy="6"/>
<feGaussianBlur stdDeviation="3"/>
<feComposite in2="hardAlpha" operator="out"/>
<feColorMatrix type="matrix" values="0 0 0 0 0 0 0 0 0 0 0 0 0 0 0 0 0 0 0.25 0"/>
<feBlend mode="normal" in2="BackgroundImageFix" result="effect1_dropShadow_0_1"/>
<feBlend mode="normal" in="SourceGraphic" in2="effect1_dropShadow_0_1" result="shape"/>
</filter>
<filter id="filter2_d_0_1" x="583.777" y="451.221" width="190.223" height="88.8287" filterUnits="userSpaceOnUse" color-interpolation-filters="sRGB">
<feFlood flood-opacity="0" result="BackgroundImageFix"/>
<feColorMatrix in="SourceAlpha" type="matrix" values="0 0 0 0 0 0 0 0 0 0 0 0 0 0 0 0 0 0 127 0" result="hardAlpha"/>
<feOffset dy="6"/>
<feGaussianBlur stdDeviation="3"/>
<feComposite in2="hardAlpha" operator="out"/>
<feColorMatrix type="matrix" values="0 0 0 0 0 0 0 0 0 0 0 0 0 0 0 0 0 0 0.25 0"/>
<feBlend mode="normal" in2="BackgroundImageFix" result="effect1_dropShadow_0_1"/>
<feBlend mode="normal" in="SourceGraphic" in2="effect1_dropShadow_0_1" result="shape"/>
</filter>
<filter id="filter3_d_0_1" x="583.777" y="432.874" width="190.223" height="88.8287" filterUnits="userSpaceOnUse" color-interpolation-filters="sRGB">
<feFlood flood-opacity="0" result="BackgroundImageFix"/>
<feColorMatrix in="SourceAlpha" type="matrix" values="0 0 0 0 0 0 0 0 0 0 0 0 0 0 0 0 0 0 127 0" result="hardAlpha"/>
<feOffset dy="6"/>
<feGaussianBlur stdDeviation="3"/>
<feComposite in2="hardAlpha" operator="out"/>
<feColorMatrix type="matrix" values="0 0 0 0 0 0 0 0 0 0 0 0 0 0 0 0 0 0 0.25 0"/>
<feBlend mode="normal" in2="BackgroundImageFix" result="effect1_dropShadow_0_1"/>
<feBlend mode="normal" in="SourceGraphic" in2="effect1_dropShadow_0_1" result="shape"/>
</filter>
<filter id="filter4_d_0_1" x="583.777" y="414.527" width="190.223" height="88.8287" filterUnits="userSpaceOnUse" color-interpolation-filters="sRGB">
<feFlood flood-opacity="0" result="BackgroundImageFix"/>
<feColorMatrix in="SourceAlpha" type="matrix" values="0 0 0 0 0 0 0 0 0 0 0 0 0 0 0 0 0 0 127 0" result="hardAlpha"/>
<feOffset dy="6"/>
<feGaussianBlur stdDeviation="3"/>
<feComposite in2="hardAlpha" operator="out"/>
<feColorMatrix type="matrix" values="0 0 0 0 0 0 0 0 0 0 0 0 0 0 0 0 0 0 0.25 0"/>
<feBlend mode="normal" in2="BackgroundImageFix" result="effect1_dropShadow_0_1"/>
<feBlend mode="normal" in="SourceGraphic" in2="effect1_dropShadow_0_1" result="shape"/>
</filter>
<filter id="filter5_d_0_1" x="583.777" y="395.033" width="190.223" height="88.8287" filterUnits="userSpaceOnUse" color-interpolation-filters="sRGB">
<feFlood flood-opacity="0" result="BackgroundImageFix"/>
<feColorMatrix in="SourceAlpha" type="matrix" values="0 0 0 0 0 0 0 0 0 0 0 0 0 0 0 0 0 0 127 0" result="hardAlpha"/>
<feOffset dy="6"/>
<feGaussianBlur stdDeviation="3"/>
<feComposite in2="hardAlpha" operator="out"/>
<feColorMatrix type="matrix" values="0 0 0 0 0 0 0 0 0 0 0 0 0 0 0 0 0 0 0.25 0"/>
<feBlend mode="normal" in2="BackgroundImageFix" result="effect1_dropShadow_0_1"/>
<feBlend mode="normal" in="SourceGraphic" in2="effect1_dropShadow_0_1" result="shape"/>
</filter>
<filter id="filter6_d_0_1" x="583.777" y="375.539" width="190.223" height="88.8287" filterUnits="userSpaceOnUse" color-interpolation-filters="sRGB">
<feFlood flood-opacity="0" result="BackgroundImageFix"/>
<feColorMatrix in="SourceAlpha" type="matrix" values="0 0 0 0 0 0 0 0 0 0 0 0 0 0 0 0 0 0 127 0" result="hardAlpha"/>
<feOffset dy="6"/>
<feGaussianBlur stdDeviation="3"/>
<feComposite in2="hardAlpha" operator="out"/>
<feColorMatrix type="matrix" values="0 0 0 0 0 0 0 0 0 0 0 0 0 0 0 0 0 0 0.25 0"/>
<feBlend mode="normal" in2="BackgroundImageFix" result="effect1_dropShadow_0_1"/>
<feBlend mode="normal" in="SourceGraphic" in2="effect1_dropShadow_0_1" result="shape"/>
</filter>
<filter id="filter7_d_0_1" x="583.777" y="357.192" width="190.223" height="88.8287" filterUnits="userSpaceOnUse" color-interpolation-filters="sRGB">
<feFlood flood-opacity="0" result="BackgroundImageFix"/>
<feColorMatrix in="SourceAlpha" type="matrix" values="0 0 0 0 0 0 0 0 0 0 0 0 0 0 0 0 0 0 127 0" result="hardAlpha"/>
<feOffset dy="6"/>
<feGaussianBlur stdDeviation="3"/>
<feComposite in2="hardAlpha" operator="out"/>
<feColorMatrix type="matrix" values="0 0 0 0 0 0 0 0 0 0 0 0 0 0 0 0 0 0 0.25 0"/>
<feBlend mode="normal" in2="BackgroundImageFix" result="effect1_dropShadow_0_1"/>
<feBlend mode="normal" in="SourceGraphic" in2="effect1_dropShadow_0_1" result="shape"/>
</filter>
<filter id="filter8_d_0_1" x="583.777" y="341.138" width="190.223" height="88.8287" filterUnits="userSpaceOnUse" color-interpolation-filters="sRGB">
<feFlood flood-opacity="0" result="BackgroundImageFix"/>
<feColorMatrix in="SourceAlpha" type="matrix" values="0 0 0 0 0 0 0 0 0 0 0 0 0 0 0 0 0 0 127 0" result="hardAlpha"/>
<feOffset dy="6"/>
<feGaussianBlur stdDeviation="3"/>
<feComposite in2="hardAlpha" operator="out"/>
<feColorMatrix type="matrix" values="0 0 0 0 0 0 0 0 0 0 0 0 0 0 0 0 0 0 0.25 0"/>
<feBlend mode="normal" in2="BackgroundImageFix" result="effect1_dropShadow_0_1"/>
<feBlend mode="normal" in="SourceGraphic" in2="effect1_dropShadow_0_1" result="shape"/>
</filter>
<filter id="filter9_d_0_1" x="583.777" y="319.351" width="190.223" height="88.8287" filterUnits="userSpaceOnUse" color-interpolation-filters="sRGB">
<feFlood flood-opacity="0" result="BackgroundImageFix"/>
<feColorMatrix in="SourceAlpha" type="matrix" values="0 0 0 0 0 0 0 0 0 0 0 0 0 0 0 0 0 0 127 0" result="hardAlpha"/>
<feOffset dy="6"/>
<feGaussianBlur stdDeviation="3"/>
<feComposite in2="hardAlpha" operator="out"/>
<feColorMatrix type="matrix" values="0 0 0 0 0 0 0 0 0 0 0 0 0 0 0 0 0 0 0.25 0"/>
<feBlend mode="normal" in2="BackgroundImageFix" result="effect1_dropShadow_0_1"/>
<feBlend mode="normal" in="SourceGraphic" in2="effect1_dropShadow_0_1" result="shape"/>
</filter>
<filter id="filter10_d_0_1" x="221.348" y="183.781" width="187.332" height="258.007" filterUnits="userSpaceOnUse" color-interpolation-filters="sRGB">
<feFlood flood-opacity="0" result="BackgroundImageFix"/>
<feColorMatrix in="SourceAlpha" type="matrix" values="0 0 0 0 0 0 0 0 0 0 0 0 0 0 0 0 0 0 127 0" result="hardAlpha"/>
<feOffset dy="6"/>
<feGaussianBlur stdDeviation="3"/>
<feComposite in2="hardAlpha" operator="out"/>
<feColorMatrix type="matrix" values="0 0 0 0 0 0 0 0 0 0 0 0 0 0 0 0 0 0 0.25 0"/>
<feBlend mode="normal" in2="BackgroundImageFix" result="effect1_dropShadow_0_1"/>
<feBlend mode="normal" in="SourceGraphic" in2="effect1_dropShadow_0_1" result="shape"/>
</filter>
<filter id="filter11_d_0_1" x="219.277" y="170.944" width="192.978" height="83.0005" filterUnits="userSpaceOnUse" color-interpolation-filters="sRGB">
<feFlood flood-opacity="0" result="BackgroundImageFix"/>
<feColorMatrix in="SourceAlpha" type="matrix" values="0 0 0 0 0 0 0 0 0 0 0 0 0 0 0 0 0 0 127 0" result="hardAlpha"/>
<feOffset dy="6"/>
<feGaussianBlur stdDeviation="3"/>
<feComposite in2="hardAlpha" operator="out"/>
<feColorMatrix type="matrix" values="0 0 0 0 0 0 0 0 0 0 0 0 0 0 0 0 0 0 0.25 0"/>
<feBlend mode="normal" in2="BackgroundImageFix" result="effect1_dropShadow_0_1"/>
<feBlend mode="normal" in="SourceGraphic" in2="effect1_dropShadow_0_1" result="shape"/>
</filter>
<filter id="filter12_d_0_1" x="404.261" y="246.222" width="187.332" height="258.007" filterUnits="userSpaceOnUse" color-interpolation-filters="sRGB">
<feFlood flood-opacity="0" result="BackgroundImageFix"/>
<feColorMatrix in="SourceAlpha" type="matrix" values="0 0 0 0 0 0 0 0 0 0 0 0 0 0 0 0 0 0 127 0" result="hardAlpha"/>
<feOffset dy="6"/>
<feGaussianBlur stdDeviation="3"/>
<feComposite in2="hardAlpha" operator="out"/>
<feColorMatrix type="matrix" values="0 0 0 0 0 0 0 0 0 0 0 0 0 0 0 0 0 0 0.25 0"/>
<feBlend mode="normal" in2="BackgroundImageFix" result="effect1_dropShadow_0_1"/>
<feBlend mode="normal" in="SourceGraphic" in2="effect1_dropShadow_0_1" result="shape"/>
</filter>
<filter id="filter13_d_0_1" x="401.017" y="228.726" width="192.978" height="83.0005" filterUnits="userSpaceOnUse" color-interpolation-filters="sRGB">
<feFlood flood-opacity="0" result="BackgroundImageFix"/>
<feColorMatrix in="SourceAlpha" type="matrix" values="0 0 0 0 0 0 0 0 0 0 0 0 0 0 0 0 0 0 127 0" result="hardAlpha"/>
<feOffset dy="6"/>
<feGaussianBlur stdDeviation="3"/>
<feComposite in2="hardAlpha" operator="out"/>
<feColorMatrix type="matrix" values="0 0 0 0 0 0 0 0 0 0 0 0 0 0 0 0 0 0 0.25 0"/>
<feBlend mode="normal" in2="BackgroundImageFix" result="effect1_dropShadow_0_1"/>
<feBlend mode="normal" in="SourceGraphic" in2="effect1_dropShadow_0_1" result="shape"/>
</filter>
<filter id="filter14_d_0_1" x="97.0611" y="278.841" width="187.332" height="258.007" filterUnits="userSpaceOnUse" color-interpolation-filters="sRGB">
<feFlood flood-opacity="0" result="BackgroundImageFix"/>
<feColorMatrix in="SourceAlpha" type="matrix" values="0 0 0 0 0 0 0 0 0 0 0 0 0 0 0 0 0 0 127 0" result="hardAlpha"/>
<feOffset dy="6"/>
<feGaussianBlur stdDeviation="3"/>
<feComposite in2="hardAlpha" operator="out"/>
<feColorMatrix type="matrix" values="0 0 0 0 0 0 0 0 0 0 0 0 0 0 0 0 0 0 0.25 0"/>
<feBlend mode="normal" in2="BackgroundImageFix" result="effect1_dropShadow_0_1"/>
<feBlend mode="normal" in="SourceGraphic" in2="effect1_dropShadow_0_1" result="shape"/>
</filter>
<filter id="filter15_d_0_1" x="93.8171" y="261.344" width="192.978" height="83.0005" filterUnits="userSpaceOnUse" color-interpolation-filters="sRGB">
<feFlood flood-opacity="0" result="BackgroundImageFix"/>
<feColorMatrix in="SourceAlpha" type="matrix" values="0 0 0 0 0 0 0 0 0 0 0 0 0 0 0 0 0 0 127 0" result="hardAlpha"/>
<feOffset dy="6"/>
<feGaussianBlur stdDeviation="3"/>
<feComposite in2="hardAlpha" operator="out"/>
<feColorMatrix type="matrix" values="0 0 0 0 0 0 0 0 0 0 0 0 0 0 0 0 0 0 0.25 0"/>
<feBlend mode="normal" in2="BackgroundImageFix" result="effect1_dropShadow_0_1"/>
<feBlend mode="normal" in="SourceGraphic" in2="effect1_dropShadow_0_1" result="shape"/>
</filter>
<filter id="filter16_d_0_1" x="325.861" y="345.942" width="241.46" height="258.007" filterUnits="userSpaceOnUse" color-interpolation-filters="sRGB">
<feFlood flood-opacity="0" result="BackgroundImageFix"/>
<feColorMatrix in="SourceAlpha" type="matrix" values="0 0 0 0 0 0 0 0 0 0 0 0 0 0 0 0 0 0 127 0" result="hardAlpha"/>
<feOffset dy="6"/>
<feGaussianBlur stdDeviation="3"/>
<feComposite in2="hardAlpha" operator="out"/>
<feColorMatrix type="matrix" values="0 0 0 0 0 0 0 0 0 0 0 0 0 0 0 0 0 0 0.25 0"/>
<feBlend mode="normal" in2="BackgroundImageFix" result="effect1_dropShadow_0_1"/>
<feBlend mode="normal" in="SourceGraphic" in2="effect1_dropShadow_0_1" result="shape"/>
</filter>
<filter id="filter17_d_0_1" x="322.788" y="330.309" width="248.849" height="83.0005" filterUnits="userSpaceOnUse" color-interpolation-filters="sRGB">
<feFlood flood-opacity="0" result="BackgroundImageFix"/>
<feColorMatrix in="SourceAlpha" type="matrix" values="0 0 0 0 0 0 0 0 0 0 0 0 0 0 0 0 0 0 127 0" result="hardAlpha"/>
<feOffset dy="6"/>
<feGaussianBlur stdDeviation="3"/>
<feComposite in2="hardAlpha" operator="out"/>
<feColorMatrix type="matrix" values="0 0 0 0 0 0 0 0 0 0 0 0 0 0 0 0 0 0 0.25 0"/>
<feBlend mode="normal" in2="BackgroundImageFix" result="effect1_dropShadow_0_1"/>
<feBlend mode="normal" in="SourceGraphic" in2="effect1_dropShadow_0_1" result="shape"/>
</filter>
<filter id="filter18_d_0_1" x="119.784" y="548.414" width="252.367" height="91.2988" filterUnits="userSpaceOnUse" color-interpolation-filters="sRGB">
<feFlood flood-opacity="0" result="BackgroundImageFix"/>
<feColorMatrix in="SourceAlpha" type="matrix" values="0 0 0 0 0 0 0 0 0 0 0 0 0 0 0 0 0 0 127 0" result="hardAlpha"/>
<feOffset dy="6"/>
<feGaussianBlur stdDeviation="3"/>
<feComposite in2="hardAlpha" operator="out"/>
<feColorMatrix type="matrix" values="0 0 0 0 0 0 0 0 0 0 0 0 0 0 0 0 0 0 0.25 0"/>
<feBlend mode="normal" in2="BackgroundImageFix" result="effect1_dropShadow_0_1"/>
<feBlend mode="normal" in="SourceGraphic" in2="effect1_dropShadow_0_1" result="shape"/>
</filter>
<filter id="filter19_d_0_1" x="263.57" y="404.943" width="65.5283" height="20.8603" filterUnits="userSpaceOnUse" color-interpolation-filters="sRGB">
<feFlood flood-opacity="0" result="BackgroundImageFix"/>
<feColorMatrix in="SourceAlpha" type="matrix" values="0 0 0 0 0 0 0 0 0 0 0 0 0 0 0 0 0 0 127 0" result="hardAlpha"/>
<feOffset dy="6"/>
<feGaussianBlur stdDeviation="3"/>
<feComposite in2="hardAlpha" operator="out"/>
<feColorMatrix type="matrix" values="0 0 0 0 0 0 0 0 0 0 0 0 0 0 0 0 0 0 0.25 0"/>
<feBlend mode="normal" in2="BackgroundImageFix" result="effect1_dropShadow_0_1"/>
<feBlend mode="normal" in="SourceGraphic" in2="effect1_dropShadow_0_1" result="shape"/>
</filter>
<filter id="filter20_d_0_1" x="279.985" y="397.487" width="65.5283" height="20.8603" filterUnits="userSpaceOnUse" color-interpolation-filters="sRGB">
<feFlood flood-opacity="0" result="BackgroundImageFix"/>
<feColorMatrix in="SourceAlpha" type="matrix" values="0 0 0 0 0 0 0 0 0 0 0 0 0 0 0 0 0 0 127 0" result="hardAlpha"/>
<feOffset dy="6"/>
<feGaussianBlur stdDeviation="3"/>
<feComposite in2="hardAlpha" operator="out"/>
<feColorMatrix type="matrix" values="0 0 0 0 0 0 0 0 0 0 0 0 0 0 0 0 0 0 0.25 0"/>
<feBlend mode="normal" in2="BackgroundImageFix" result="effect1_dropShadow_0_1"/>
<feBlend mode="normal" in="SourceGraphic" in2="effect1_dropShadow_0_1" result="shape"/>
</filter>
<filter id="filter21_d_0_1" x="298.746" y="390.032" width="65.5283" height="20.8603" filterUnits="userSpaceOnUse" color-interpolation-filters="sRGB">
<feFlood flood-opacity="0" result="BackgroundImageFix"/>
<feColorMatrix in="SourceAlpha" type="matrix" values="0 0 0 0 0 0 0 0 0 0 0 0 0 0 0 0 0 0 127 0" result="hardAlpha"/>
<feOffset dy="6"/>
<feGaussianBlur stdDeviation="3"/>
<feComposite in2="hardAlpha" operator="out"/>
<feColorMatrix type="matrix" values="0 0 0 0 0 0 0 0 0 0 0 0 0 0 0 0 0 0 0.25 0"/>
<feBlend mode="normal" in2="BackgroundImageFix" result="effect1_dropShadow_0_1"/>
<feBlend mode="normal" in="SourceGraphic" in2="effect1_dropShadow_0_1" result="shape"/>
</filter>
<filter id="filter22_d_0_1" x="318.678" y="383.508" width="65.5283" height="20.8603" filterUnits="userSpaceOnUse" color-interpolation-filters="sRGB">
<feFlood flood-opacity="0" result="BackgroundImageFix"/>
<feColorMatrix in="SourceAlpha" type="matrix" values="0 0 0 0 0 0 0 0 0 0 0 0 0 0 0 0 0 0 127 0" result="hardAlpha"/>
<feOffset dy="6"/>
<feGaussianBlur stdDeviation="3"/>
<feComposite in2="hardAlpha" operator="out"/>
<feColorMatrix type="matrix" values="0 0 0 0 0 0 0 0 0 0 0 0 0 0 0 0 0 0 0.25 0"/>
<feBlend mode="normal" in2="BackgroundImageFix" result="effect1_dropShadow_0_1"/>
<feBlend mode="normal" in="SourceGraphic" in2="effect1_dropShadow_0_1" result="shape"/>
</filter>
<filter id="filter23_d_0_1" x="333.921" y="376.052" width="65.5283" height="20.8603" filterUnits="userSpaceOnUse" color-interpolation-filters="sRGB">
<feFlood flood-opacity="0" result="BackgroundImageFix"/>
<feColorMatrix in="SourceAlpha" type="matrix" values="0 0 0 0 0 0 0 0 0 0 0 0 0 0 0 0 0 0 127 0" result="hardAlpha"/>
<feOffset dy="6"/>
<feGaussianBlur stdDeviation="3"/>
<feComposite in2="hardAlpha" operator="out"/>
<feColorMatrix type="matrix" values="0 0 0 0 0 0 0 0 0 0 0 0 0 0 0 0 0 0 0.25 0"/>
<feBlend mode="normal" in2="BackgroundImageFix" result="effect1_dropShadow_0_1"/>
<feBlend mode="normal" in="SourceGraphic" in2="effect1_dropShadow_0_1" result="shape"/>
</filter>
<filter id="filter24_d_0_1" x="350.337" y="369.528" width="65.5283" height="20.8603" filterUnits="userSpaceOnUse" color-interpolation-filters="sRGB">
<feFlood flood-opacity="0" result="BackgroundImageFix"/>
<feColorMatrix in="SourceAlpha" type="matrix" values="0 0 0 0 0 0 0 0 0 0 0 0 0 0 0 0 0 0 127 0" result="hardAlpha"/>
<feOffset dy="6"/>
<feGaussianBlur stdDeviation="3"/>
<feComposite in2="hardAlpha" operator="out"/>
<feColorMatrix type="matrix" values="0 0 0 0 0 0 0 0 0 0 0 0 0 0 0 0 0 0 0.25 0"/>
<feBlend mode="normal" in2="BackgroundImageFix" result="effect1_dropShadow_0_1"/>
<feBlend mode="normal" in="SourceGraphic" in2="effect1_dropShadow_0_1" result="shape"/>
</filter>
<filter id="filter25_d_0_1" x="618.915" y="320.134" width="58.1394" height="20.8603" filterUnits="userSpaceOnUse" color-interpolation-filters="sRGB">
<feFlood flood-opacity="0" result="BackgroundImageFix"/>
<feColorMatrix in="SourceAlpha" type="matrix" values="0 0 0 0 0 0 0 0 0 0 0 0 0 0 0 0 0 0 127 0" result="hardAlpha"/>
<feOffset dy="6"/>
<feGaussianBlur stdDeviation="3"/>
<feComposite in2="hardAlpha" operator="out"/>
<feColorMatrix type="matrix" values="0 0 0 0 0 0 0 0 0 0 0 0 0 0 0 0 0 0 0.25 0"/>
<feBlend mode="normal" in2="BackgroundImageFix" result="effect1_dropShadow_0_1"/>
<feBlend mode="normal" in="SourceGraphic" in2="effect1_dropShadow_0_1" result="shape"/>
</filter>
<filter id="filter26_d_0_1" x="605.776" y="312.679" width="58.1394" height="20.8603" filterUnits="userSpaceOnUse" color-interpolation-filters="sRGB">
<feFlood flood-opacity="0" result="BackgroundImageFix"/>
<feColorMatrix in="SourceAlpha" type="matrix" values="0 0 0 0 0 0 0 0 0 0 0 0 0 0 0 0 0 0 127 0" result="hardAlpha"/>
<feOffset dy="6"/>
<feGaussianBlur stdDeviation="3"/>
<feComposite in2="hardAlpha" operator="out"/>
<feColorMatrix type="matrix" values="0 0 0 0 0 0 0 0 0 0 0 0 0 0 0 0 0 0 0.25 0"/>
<feBlend mode="normal" in2="BackgroundImageFix" result="effect1_dropShadow_0_1"/>
<feBlend mode="normal" in="SourceGraphic" in2="effect1_dropShadow_0_1" result="shape"/>
</filter>
<filter id="filter27_d_0_1" x="591.627" y="306.155" width="58.1394" height="20.8603" filterUnits="userSpaceOnUse" color-interpolation-filters="sRGB">
<feFlood flood-opacity="0" result="BackgroundImageFix"/>
<feColorMatrix in="SourceAlpha" type="matrix" values="0 0 0 0 0 0 0 0 0 0 0 0 0 0 0 0 0 0 127 0" result="hardAlpha"/>
<feOffset dy="6"/>
<feGaussianBlur stdDeviation="3"/>
<feComposite in2="hardAlpha" operator="out"/>
<feColorMatrix type="matrix" values="0 0 0 0 0 0 0 0 0 0 0 0 0 0 0 0 0 0 0.25 0"/>
<feBlend mode="normal" in2="BackgroundImageFix" result="effect1_dropShadow_0_1"/>
<feBlend mode="normal" in="SourceGraphic" in2="effect1_dropShadow_0_1" result="shape"/>
</filter>
<filter id="filter28_d_0_1" x="577.305" y="299.631" width="58.1394" height="20.8603" filterUnits="userSpaceOnUse" color-interpolation-filters="sRGB">
<feFlood flood-opacity="0" result="BackgroundImageFix"/>
<feColorMatrix in="SourceAlpha" type="matrix" values="0 0 0 0 0 0 0 0 0 0 0 0 0 0 0 0 0 0 127 0" result="hardAlpha"/>
<feOffset dy="6"/>
<feGaussianBlur stdDeviation="3"/>
<feComposite in2="hardAlpha" operator="out"/>
<feColorMatrix type="matrix" values="0 0 0 0 0 0 0 0 0 0 0 0 0 0 0 0 0 0 0.25 0"/>
<feBlend mode="normal" in2="BackgroundImageFix" result="effect1_dropShadow_0_1"/>
<feBlend mode="normal" in="SourceGraphic" in2="effect1_dropShadow_0_1" result="shape"/>
</filter>
<filter id="filter29_d_0_1" x="563.156" y="292.176" width="58.1394" height="20.8603" filterUnits="userSpaceOnUse" color-interpolation-filters="sRGB">
<feFlood flood-opacity="0" result="BackgroundImageFix"/>
<feColorMatrix in="SourceAlpha" type="matrix" values="0 0 0 0 0 0 0 0 0 0 0 0 0 0 0 0 0 0 127 0" result="hardAlpha"/>
<feOffset dy="6"/>
<feGaussianBlur stdDeviation="3"/>
<feComposite in2="hardAlpha" operator="out"/>
<feColorMatrix type="matrix" values="0 0 0 0 0 0 0 0 0 0 0 0 0 0 0 0 0 0 0.25 0"/>
<feBlend mode="normal" in2="BackgroundImageFix" result="effect1_dropShadow_0_1"/>
<feBlend mode="normal" in="SourceGraphic" in2="effect1_dropShadow_0_1" result="shape"/>
</filter>
<filter id="filter30_d_0_1" x="546.985" y="284.72" width="58.1394" height="20.8603" filterUnits="userSpaceOnUse" color-interpolation-filters="sRGB">
<feFlood flood-opacity="0" result="BackgroundImageFix"/>
<feColorMatrix in="SourceAlpha" type="matrix" values="0 0 0 0 0 0 0 0 0 0 0 0 0 0 0 0 0 0 127 0" result="hardAlpha"/>
<feOffset dy="6"/>
<feGaussianBlur stdDeviation="3"/>
<feComposite in2="hardAlpha" operator="out"/>
<feColorMatrix type="matrix" values="0 0 0 0 0 0 0 0 0 0 0 0 0 0 0 0 0 0 0.25 0"/>
<feBlend mode="normal" in2="BackgroundImageFix" result="effect1_dropShadow_0_1"/>
<feBlend mode="normal" in="SourceGraphic" in2="effect1_dropShadow_0_1" result="shape"/>
</filter>
<filter id="filter31_d_0_1" x="529.804" y="278.196" width="58.1394" height="20.8603" filterUnits="userSpaceOnUse" color-interpolation-filters="sRGB">
<feFlood flood-opacity="0" result="BackgroundImageFix"/>
<feColorMatrix in="SourceAlpha" type="matrix" values="0 0 0 0 0 0 0 0 0 0 0 0 0 0 0 0 0 0 127 0" result="hardAlpha"/>
<feOffset dy="6"/>
<feGaussianBlur stdDeviation="3"/>
<feComposite in2="hardAlpha" operator="out"/>
<feColorMatrix type="matrix" values="0 0 0 0 0 0 0 0 0 0 0 0 0 0 0 0 0 0 0.25 0"/>
<feBlend mode="normal" in2="BackgroundImageFix" result="effect1_dropShadow_0_1"/>
<feBlend mode="normal" in="SourceGraphic" in2="effect1_dropShadow_0_1" result="shape"/>
</filter>
<filter id="filter32_d_0_1" x="516.665" y="270.741" width="58.1394" height="20.8603" filterUnits="userSpaceOnUse" color-interpolation-filters="sRGB">
<feFlood flood-opacity="0" result="BackgroundImageFix"/>
<feColorMatrix in="SourceAlpha" type="matrix" values="0 0 0 0 0 0 0 0 0 0 0 0 0 0 0 0 0 0 127 0" result="hardAlpha"/>
<feOffset dy="6"/>
<feGaussianBlur stdDeviation="3"/>
<feComposite in2="hardAlpha" operator="out"/>
<feColorMatrix type="matrix" values="0 0 0 0 0 0 0 0 0 0 0 0 0 0 0 0 0 0 0.25 0"/>
<feBlend mode="normal" in2="BackgroundImageFix" result="effect1_dropShadow_0_1"/>
<feBlend mode="normal" in="SourceGraphic" in2="effect1_dropShadow_0_1" result="shape"/>
</filter>
<filter id="filter33_d_0_1" x="502.516" y="264.217" width="58.1394" height="20.8603" filterUnits="userSpaceOnUse" color-interpolation-filters="sRGB">
<feFlood flood-opacity="0" result="BackgroundImageFix"/>
<feColorMatrix in="SourceAlpha" type="matrix" values="0 0 0 0 0 0 0 0 0 0 0 0 0 0 0 0 0 0 127 0" result="hardAlpha"/>
<feOffset dy="6"/>
<feGaussianBlur stdDeviation="3"/>
<feComposite in2="hardAlpha" operator="out"/>
<feColorMatrix type="matrix" values="0 0 0 0 0 0 0 0 0 0 0 0 0 0 0 0 0 0 0.25 0"/>
<feBlend mode="normal" in2="BackgroundImageFix" result="effect1_dropShadow_0_1"/>
<feBlend mode="normal" in="SourceGraphic" in2="effect1_dropShadow_0_1" result="shape"/>
</filter>
<filter id="filter34_d_0_1" x="332.513" y="571.703" width="175.67" height="78.1057" filterUnits="userSpaceOnUse" color-interpolation-filters="sRGB">
<feFlood flood-opacity="0" result="BackgroundImageFix"/>
<feColorMatrix in="SourceAlpha" type="matrix" values="0 0 0 0 0 0 0 0 0 0 0 0 0 0 0 0 0 0 127 0" result="hardAlpha"/>
<feOffset dy="4"/>
<feGaussianBlur stdDeviation="2"/>
<feComposite in2="hardAlpha" operator="out"/>
<feColorMatrix type="matrix" values="0 0 0 0 0 0 0 0 0 0 0 0 0 0 0 0 0 0 0.25 0"/>
<feBlend mode="normal" in2="BackgroundImageFix" result="effect1_dropShadow_0_1"/>
<feBlend mode="normal" in="SourceGraphic" in2="effect1_dropShadow_0_1" result="shape"/>
</filter>
<filter id="filter35_d_0_1" x="332.513" y="557.933" width="175.67" height="78.1057" filterUnits="userSpaceOnUse" color-interpolation-filters="sRGB">
<feFlood flood-opacity="0" result="BackgroundImageFix"/>
<feColorMatrix in="SourceAlpha" type="matrix" values="0 0 0 0 0 0 0 0 0 0 0 0 0 0 0 0 0 0 127 0" result="hardAlpha"/>
<feOffset dy="4"/>
<feGaussianBlur stdDeviation="2"/>
<feComposite in2="hardAlpha" operator="out"/>
<feColorMatrix type="matrix" values="0 0 0 0 0 0 0 0 0 0 0 0 0 0 0 0 0 0 0.25 0"/>
<feBlend mode="normal" in2="BackgroundImageFix" result="effect1_dropShadow_0_1"/>
<feBlend mode="normal" in="SourceGraphic" in2="effect1_dropShadow_0_1" result="shape"/>
</filter>
<filter id="filter36_d_0_1" x="163.045" y="244.033" width="52.6332" height="37.3448" filterUnits="userSpaceOnUse" color-interpolation-filters="sRGB">
<feFlood flood-opacity="0" result="BackgroundImageFix"/>
<feColorMatrix in="SourceAlpha" type="matrix" values="0 0 0 0 0 0 0 0 0 0 0 0 0 0 0 0 0 0 127 0" result="hardAlpha"/>
<feOffset dy="4"/>
<feGaussianBlur stdDeviation="2"/>
<feComposite in2="hardAlpha" operator="out"/>
<feColorMatrix type="matrix" values="0 0 0 0 0 0 0 0 0 0 0 0 0 0 0 0 0 0 0.25 0"/>
<feBlend mode="normal" in2="BackgroundImageFix" result="effect1_dropShadow_0_1"/>
<feBlend mode="normal" in="SourceGraphic" in2="effect1_dropShadow_0_1" result="shape"/>
</filter>
<filter id="filter37_d_0_1" x="307.923" y="175.862" width="74.8335" height="36.8578" filterUnits="userSpaceOnUse" color-interpolation-filters="sRGB">
<feFlood flood-opacity="0" result="BackgroundImageFix"/>
<feColorMatrix in="SourceAlpha" type="matrix" values="0 0 0 0 0 0 0 0 0 0 0 0 0 0 0 0 0 0 127 0" result="hardAlpha"/>
<feOffset dy="4"/>
<feGaussianBlur stdDeviation="2"/>
<feComposite in2="hardAlpha" operator="out"/>
<feColorMatrix type="matrix" values="0 0 0 0 0 0 0 0 0 0 0 0 0 0 0 0 0 0 0.25 0"/>
<feBlend mode="normal" in2="BackgroundImageFix" result="effect1_dropShadow_0_1"/>
<feBlend mode="normal" in="SourceGraphic" in2="effect1_dropShadow_0_1" result="shape"/>
</filter>
<filter id="filter38_d_0_1" x="279.782" y="186.113" width="71.2833" height="38.8034" filterUnits="userSpaceOnUse" color-interpolation-filters="sRGB">
<feFlood flood-opacity="0" result="BackgroundImageFix"/>
<feColorMatrix in="SourceAlpha" type="matrix" values="0 0 0 0 0 0 0 0 0 0 0 0 0 0 0 0 0 0 127 0" result="hardAlpha"/>
<feOffset dy="4"/>
<feGaussianBlur stdDeviation="2"/>
<feComposite in2="hardAlpha" operator="out"/>
<feColorMatrix type="matrix" values="0 0 0 0 0 0 0 0 0 0 0 0 0 0 0 0 0 0 0.25 0"/>
<feBlend mode="normal" in2="BackgroundImageFix" result="effect1_dropShadow_0_1"/>
<feBlend mode="normal" in="SourceGraphic" in2="effect1_dropShadow_0_1" result="shape"/>
</filter>
<filter id="filter39_d_0_1" x="306.75" y="174.93" width="74.8335" height="37.7898" filterUnits="userSpaceOnUse" color-interpolation-filters="sRGB">
<feFlood flood-opacity="0" result="BackgroundImageFix"/>
<feColorMatrix in="SourceAlpha" type="matrix" values="0 0 0 0 0 0 0 0 0 0 0 0 0 0 0 0 0 0 127 0" result="hardAlpha"/>
<feOffset dy="4"/>
<feGaussianBlur stdDeviation="2"/>
<feComposite in2="hardAlpha" operator="out"/>
<feColorMatrix type="matrix" values="0 0 0 0 0 0 0 0 0 0 0 0 0 0 0 0 0 0 0.25 0"/>
<feBlend mode="normal" in2="BackgroundImageFix" result="effect1_dropShadow_0_1"/>
<feBlend mode="normal" in="SourceGraphic" in2="effect1_dropShadow_0_1" result="shape"/>
</filter>
<filter id="filter40_d_0_1" x="277.991" y="185.566" width="72.4887" height="38.8034" filterUnits="userSpaceOnUse" color-interpolation-filters="sRGB">
<feFlood flood-opacity="0" result="BackgroundImageFix"/>
<feColorMatrix in="SourceAlpha" type="matrix" values="0 0 0 0 0 0 0 0 0 0 0 0 0 0 0 0 0 0 127 0" result="hardAlpha"/>
<feOffset dy="4"/>
<feGaussianBlur stdDeviation="2"/>
<feComposite in2="hardAlpha" operator="out"/>
<feColorMatrix type="matrix" values="0 0 0 0 0 0 0 0 0 0 0 0 0 0 0 0 0 0 0.25 0"/>
<feBlend mode="normal" in2="BackgroundImageFix" result="effect1_dropShadow_0_1"/>
<feBlend mode="normal" in="SourceGraphic" in2="effect1_dropShadow_0_1" result="shape"/>
</filter>
<filter id="filter41_d_0_1" x="305.025" y="173.998" width="74.8335" height="38.722" filterUnits="userSpaceOnUse" color-interpolation-filters="sRGB">
<feFlood flood-opacity="0" result="BackgroundImageFix"/>
<feColorMatrix in="SourceAlpha" type="matrix" values="0 0 0 0 0 0 0 0 0 0 0 0 0 0 0 0 0 0 127 0" result="hardAlpha"/>
<feOffset dy="4"/>
<feGaussianBlur stdDeviation="2"/>
<feComposite in2="hardAlpha" operator="out"/>
<feColorMatrix type="matrix" values="0 0 0 0 0 0 0 0 0 0 0 0 0 0 0 0 0 0 0.25 0"/>
<feBlend mode="normal" in2="BackgroundImageFix" result="effect1_dropShadow_0_1"/>
<feBlend mode="normal" in="SourceGraphic" in2="effect1_dropShadow_0_1" result="shape"/>
</filter>
<filter id="filter42_d_0_1" x="276.265" y="184.168" width="74.8335" height="38.8034" filterUnits="userSpaceOnUse" color-interpolation-filters="sRGB">
<feFlood flood-opacity="0" result="BackgroundImageFix"/>
<feColorMatrix in="SourceAlpha" type="matrix" values="0 0 0 0 0 0 0 0 0 0 0 0 0 0 0 0 0 0 127 0" result="hardAlpha"/>
<feOffset dy="4"/>
<feGaussianBlur stdDeviation="2"/>
<feComposite in2="hardAlpha" operator="out"/>
<feColorMatrix type="matrix" values="0 0 0 0 0 0 0 0 0 0 0 0 0 0 0 0 0 0 0.25 0"/>
<feBlend mode="normal" in2="BackgroundImageFix" result="effect1_dropShadow_0_1"/>
<feBlend mode="normal" in="SourceGraphic" in2="effect1_dropShadow_0_1" result="shape"/>
</filter>
<linearGradient id="paint0_linear_0_1" x1="-1.08275e-05" y1="363" x2="874.143" y2="377" gradientUnits="userSpaceOnUse">
<stop offset="0.419792" stop-color="white"/>
<stop offset="0.586458" stop-color="#FDFEFF"/>
<stop offset="0.742708" stop-color="#FEFFFF" stop-opacity="0.89"/>
<stop offset="0.949893" stop-color="#FDFEFF" stop-opacity="0.48"/>
</linearGradient>
<linearGradient id="paint1_linear_0_1" x1="217.822" y1="209.36" x2="399.005" y2="398.82" gradientUnits="userSpaceOnUse">
<stop offset="0.570833" stop-color="#1177D3"/>
<stop offset="1" stop-color="#196AB2" stop-opacity="0"/>
</linearGradient>
<linearGradient id="paint2_linear_0_1" x1="400.735" y1="271.801" x2="581.918" y2="461.261" gradientUnits="userSpaceOnUse">
<stop stop-color="#31ACF1"/>
<stop offset="1" stop-color="#31ACF1" stop-opacity="0.41"/>
</linearGradient>
<linearGradient id="paint3_linear_0_1" x1="362.308" y1="400.898" x2="492.11" y2="588.622" gradientUnits="userSpaceOnUse">
<stop offset="0.0488259" stop-color="#0A5598"/>
<stop offset="1" stop-color="#0671BE" stop-opacity="0.59"/>
</linearGradient>
</defs>
</svg>
